<?xml version="1.0" encoding="utf-8"?>
<!-- Generator: Adobe Illustrator 24.1.1, SVG Export Plug-In . SVG Version: 6.00 Build 0)  -->
<svg version="1.0" id="Capa_1" xmlns="http://www.w3.org/2000/svg" xmlns:xlink="http://www.w3.org/1999/xlink" x="0px" y="0px"
	 viewBox="0 0 30 30" style="enable-background:new 0 0 30 30;" xml:space="preserve">
<path style="opacity:0.8;fill:#26285B;" d="M29.45,26.82l-5.81-5.81c1.72-2.26,2.65-5.03,2.63-7.88C26.3,5.93,20.5,0.05,13.3,0.01
	c-0.05,0-0.11,0-0.16,0C5.93-0.04,0.05,5.77,0.01,12.97c0,0.05,0,0.11,0,0.16c-0.04,7.2,5.76,13.08,12.96,13.13
	c0.05,0,0.11,0,0.16,0c2.84,0.02,5.61-0.9,7.88-2.63l5.81,5.81c0.72,0.72,1.9,0.72,2.63,0C30.17,28.72,30.17,27.55,29.45,26.82z
	 M22.51,13.13c0.05,5.13-4.06,9.32-9.19,9.38c-0.06,0-0.12,0-0.18,0c-5.13,0.05-9.32-4.06-9.38-9.19c0-0.06,0-0.12,0-0.18
	c-0.05-5.13,4.06-9.32,9.19-9.38c0.06,0,0.12,0,0.18,0c5.13-0.05,9.32,4.06,9.38,9.19C22.51,13.01,22.51,13.07,22.51,13.13z"/>
</svg>
