<?xml version="1.0" encoding="utf-8"?>
<!-- Generator: Adobe Illustrator 24.1.1, SVG Export Plug-In . SVG Version: 6.00 Build 0)  -->
<svg version="1.0" id="Capa_1" xmlns="http://www.w3.org/2000/svg" xmlns:xlink="http://www.w3.org/1999/xlink" x="0px" y="0px"
	 viewBox="0 0 175 79.13" style="enable-background:new 0 0 175 79.13;" xml:space="preserve">
<g id="Grupo_103" transform="translate(274.5 38.305)">
	<path id="Trazado_57" style="fill:#009FE3;" d="M-131.26-20.49c-4.26-2.68-8.7-5.04-13.3-7.09c-6.96-3.06-14.2-5.45-21.62-7.13
		c-5.34-1.23-10.75-2.13-16.21-2.71c-12.97-1.32-26.05-1.17-38.99,0.46c-6.47,0.77-12.89,1.87-19.27,3.29
		c-3.19,0.69-6.39,1.47-9.58,2.36c-1.61,0.45-3.22,0.93-4.85,1.41c-1.66,0.52-3.15,0.99-5.13,1.73l14.44,33.03
		c0.76-0.5,2.07-1.19,3.19-1.76c1.18-0.62,2.41-1.24,3.63-1.82c2.46-1.17,4.99-2.3,7.56-3.34c5.12-2.15,10.4-4.04,15.72-5.68
		c10.63-3.32,21.61-5.43,32.72-6.27c7.61-0.56,15.26-0.34,22.83,0.65c3.42,0.44,6.82,1.08,10.16,1.91c2.03,0.48,4.04,1.07,6.03,1.71
		c8.78,2.81,17.07,6.95,24.58,12.29l6.68-8.13C-118.27-11.26-124.51-16.26-131.26-20.49"/>
	<path id="Trazado_58" d="M-266.62,40.82c-2.74,0.01-5.44-0.62-7.88-1.86l0.85-5.82c2.14,1.15,4.53,1.78,6.96,1.82
		c2.21,0,3.07-0.67,3.07-1.92c0-3.09-10.86-1.78-10.86-10.28c0-4.44,2.82-8.1,9.45-8.1c2.45-0.01,4.89,0.42,7.19,1.28l-0.81,5.69
		c-1.94-0.6-3.96-0.93-5.99-0.97c-2.68,0-3.2,0.73-3.2,1.71c0,3.12,10.8,1.72,10.8,10.24C-257.05,37.66-260.67,40.83-266.62,40.82"
		/>
	<path id="Trazado_59" d="M-243.87,38.66c-1.4,1.35-3.28,2.08-5.23,2.03c-3.92,0-6.3-2.3-6.3-6.92c0-3.78,2.68-6.48,7.19-6.48
		c1.14-0.01,2.28,0.13,3.39,0.42v-0.74c0-1.5-0.84-2.35-3.32-2.35c-1.89-0.03-3.77,0.31-5.52,1.02l-0.48-4.89
		c2.28-0.94,4.73-1.4,7.19-1.35c6.34,0,8.43,2.8,8.43,8.47v12.48h-4.87L-243.87,38.66z M-244.82,31.84
		c-0.7-0.22-1.43-0.33-2.16-0.32c-1.69,0-2.48,0.7-2.48,2.21c-0.13,1.02,0.59,1.95,1.61,2.08c0.17,0.02,0.34,0.02,0.51-0.01
		c1.35,0,2.52-0.76,2.52-1.88L-244.82,31.84z"/>
	<path id="Trazado_60" d="M-224.07,40.36V27.48c0-1.89-0.83-2.61-2.44-2.61c-1.01-0.03-1.98,0.4-2.63,1.17v14.32h-6.33V19.87
		l4.56-0.27l0.88,1.62c1.52-1.21,3.42-1.86,5.36-1.84c4.24,0,6.97,2.9,6.97,8.11v12.87H-224.07z"/>
	<path id="Trazado_61" d="M-198.79,15.1l4.91,12.89l0.92,2.55h0.09l0.89-2.52l4.97-12.93h7.52v25.26h-6.3V29.71l0.06-2.73
		l-0.09-0.03l-0.92,2.6l-4.04,10.81h-4.53l-4.04-10.89l-0.89-2.58l-0.06,0.03l0.03,2.71v10.73h-6.06V15.1H-198.79z"/>
	<path id="Trazado_62" d="M-165.19,38.66c-1.4,1.35-3.29,2.08-5.23,2.03c-3.93,0-6.3-2.3-6.3-6.92c0-3.78,2.67-6.48,7.19-6.48
		c1.14-0.01,2.28,0.13,3.39,0.42v-0.74c0-1.5-0.85-2.35-3.32-2.35c-1.88-0.04-3.75,0.31-5.5,1.02l-0.5-4.89
		c2.28-0.94,4.73-1.4,7.2-1.35c6.35,0,8.43,2.8,8.43,8.47v12.48h-4.88L-165.19,38.66z M-166.15,31.84c-0.7-0.22-1.44-0.33-2.18-0.32
		c-1.68,0-2.46,0.7-2.46,2.21c-0.13,1.02,0.59,1.94,1.61,2.07c0.16,0.02,0.33,0.02,0.49,0c1.35,0,2.54-0.76,2.54-1.88L-166.15,31.84
		z"/>
	<path id="Trazado_63" d="M-156.78,40.36V19.9l5.05-0.24l0.56,2.98h0.1c0.97-1.98,2.98-3.24,5.19-3.24c0.76-0.01,1.53,0.1,2.25,0.32
		l-0.36,6.15c-0.75-0.24-1.54-0.36-2.33-0.35c-2.44,0-4.09,1.64-4.09,4.55v10.28L-156.78,40.36z"/>
	<path id="Trazado_64" d="M-134.25,24.41v9.5c0,1.3,0.62,1.86,2.08,1.86c0.52,0.01,1.04-0.07,1.53-0.23l0.34,4.52
		c-1.22,0.46-2.52,0.68-3.82,0.64c-4.42,0-6.5-2.6-6.5-6.66v-9.63h-1.9v-4.68h2.24l1.03-4.36l5.01-0.44v4.81h4.18v4.68H-134.25z"/>
	<path id="Trazado_65-2" d="M-127.49,40.36V19.95l6.47-0.3v20.71H-127.49z M-118.37,13.46l-4.09,4.91h-4.72l1.65-4.91H-118.37z"/>
	<path id="Trazado_66-2" d="M-105.85,40.36V27.48c0-1.89-0.83-2.61-2.44-2.61c-1.01-0.03-1.98,0.4-2.63,1.17v14.32h-6.34V19.87
		l4.56-0.27l0.86,1.62c1.53-1.2,3.42-1.85,5.36-1.84c4.25,0,6.97,2.9,6.97,8.11v12.87H-105.85z"/>
</g>
</svg>
