<?xml version="1.0" encoding="utf-8"?>
<!-- Generator: Adobe Illustrator 24.1.1, SVG Export Plug-In . SVG Version: 6.00 Build 0)  -->
<svg version="1.0" id="Capa_1" xmlns="http://www.w3.org/2000/svg" xmlns:xlink="http://www.w3.org/1999/xlink" x="0px" y="0px"
	 viewBox="0 0 26.79 26.8" style="enable-background:new 0 0 26.79 26.8;" xml:space="preserve">
<g style="opacity:0.8;">
	<path style="fill-rule:evenodd;clip-rule:evenodd;fill:#26285B;" d="M20.46,4.62c-0.9,0-1.63,0.73-1.63,1.63s0.73,1.63,1.63,1.63
		s1.63-0.73,1.63-1.63l0,0C22.08,5.35,21.36,4.63,20.46,4.62"/>
	<path style="fill-rule:evenodd;clip-rule:evenodd;fill:#26285B;" d="M26.53,7.92c0-1.11-0.2-2.22-0.59-3.26
		c-0.29-0.9-0.8-1.71-1.48-2.37c-0.66-0.68-1.47-1.19-2.36-1.48c-1.04-0.39-2.15-0.6-3.26-0.59c-1.82-0.16-3.65-0.21-5.47-0.15
		C11.53,0.01,9.7,0.06,7.88,0.22c-1.11,0-2.22,0.2-3.26,0.59c-0.9,0.29-1.71,0.8-2.37,1.48C1.57,2.95,1.06,3.76,0.77,4.66
		C0.3,5.68,0.1,6.8,0.18,7.92c-0.16,1.82-0.21,3.65-0.15,5.48c-0.07,1.83-0.02,3.65,0.15,5.47c0,1.11,0.2,2.22,0.59,3.26
		c0.29,0.9,0.8,1.71,1.48,2.37c0.66,0.68,1.47,1.19,2.37,1.48c1.04,0.39,2.14,0.59,3.26,0.59c1.82,0.16,3.65,0.21,5.48,0.15
		c1.83,0.06,3.65,0.01,5.47-0.15c1.11,0,2.22-0.2,3.26-0.59c1.81-0.62,3.23-2.04,3.85-3.85c0.39-1.04,0.6-2.14,0.59-3.26
		c0-1.48,0.15-1.92,0.15-5.48C26.74,11.57,26.69,9.74,26.53,7.92z M24.16,18.73c0.01,0.86-0.14,1.71-0.44,2.52
		c-0.52,1.11-1.41,2-2.52,2.52c-0.8,0.3-1.66,0.45-2.52,0.44c-1.33,0-1.78,0.15-5.33,0.15c-1.78,0.07-3.56,0.02-5.33-0.15
		c-0.86,0.01-1.71-0.14-2.52-0.44c-1.11-0.52-2-1.41-2.52-2.52c-0.3-0.8-0.45-1.66-0.44-2.52c0-1.33-0.15-1.78-0.15-5.33
		c-0.07-1.78-0.02-3.56,0.14-5.33C2.53,7.21,2.68,6.36,2.99,5.56C3.25,5.01,3.6,4.5,4.03,4.07C4.37,3.55,4.9,3.18,5.51,3.03
		c0.81-0.3,1.66-0.46,2.52-0.44c1.77-0.17,3.55-0.21,5.33-0.15c1.78-0.07,3.56-0.02,5.33,0.15c0.86-0.01,1.71,0.14,2.52,0.44
		c1.11,0.52,2,1.41,2.52,2.52c0.31,0.81,0.46,1.66,0.45,2.52c0,1.33,0.15,1.78,0.15,5.33C24.38,15.18,24.33,16.96,24.16,18.73z"/>
	<path style="fill-rule:evenodd;clip-rule:evenodd;fill:#26285B;" d="M13.35,6.54c-3.7-0.06-6.75,2.89-6.81,6.59
		c0,0.07,0,0.15,0,0.22c0,3.76,3.05,6.81,6.81,6.81s6.81-3.05,6.81-6.81C20.16,9.59,17.12,6.54,13.35,6.54z M17.8,13.35
		c0.04,2.41-1.87,4.4-4.28,4.44c-0.05,0-0.11,0-0.16,0c-2.41,0.04-4.4-1.87-4.44-4.28c0-0.05,0-0.11,0-0.16
		c-0.04-2.41,1.87-4.4,4.28-4.44c0.05,0,0.11,0,0.16,0c2.41-0.04,4.4,1.87,4.44,4.28C17.8,13.25,17.8,13.3,17.8,13.35z"/>
</g>
</svg>
