<?xml version="1.0" encoding="utf-8"?>
<!-- Generator: Adobe Illustrator 24.1.1, SVG Export Plug-In . SVG Version: 6.00 Build 0)  -->
<svg version="1.1" id="Capa_1" xmlns="http://www.w3.org/2000/svg" xmlns:xlink="http://www.w3.org/1999/xlink" x="0px" y="0px"
	 viewBox="0 0 26.8 26.8" style="enable-background:new 0 0 26.8 26.8;" xml:space="preserve">
<style type="text/css">
	.st0{fill-rule:evenodd;clip-rule:evenodd;fill:#FFFFFF;}
</style>
<g>
	<path class="st0" d="M20.5,4.6c-0.9,0-1.6,0.7-1.6,1.6s0.7,1.6,1.6,1.6s1.6-0.7,1.6-1.6l0,0C22.1,5.3,21.4,4.6,20.5,4.6"/>
	<path class="st0" d="M26.5,7.9c0-1.1-0.2-2.2-0.6-3.3c-0.3-0.9-0.8-1.7-1.5-2.4c-0.7-0.7-1.5-1.2-2.4-1.5c-1-0.4-2.1-0.6-3.3-0.6
		C17,0.1,15.2,0,13.4,0.1c-1.8-0.1-3.7,0-5.5,0.2c-1.1,0-2.2,0.2-3.3,0.6C3.7,1.1,2.9,1.6,2.3,2.3C1.6,3,1.1,3.8,0.8,4.7
		c-0.5,1-0.7,2.1-0.6,3.3C0,9.7,0,11.6,0,13.4C0,15.2,0,17,0.2,18.9c0,1.1,0.2,2.2,0.6,3.3c0.3,0.9,0.8,1.7,1.5,2.4
		c0.7,0.7,1.5,1.2,2.4,1.5c1,0.4,2.1,0.6,3.3,0.6c1.8,0.2,3.7,0.2,5.5,0.1c1.8,0.1,3.6,0,5.5-0.1c1.1,0,2.2-0.2,3.3-0.6
		c1.8-0.6,3.2-2,3.9-3.9c0.4-1,0.6-2.1,0.6-3.3c0-1.5,0.1-1.9,0.1-5.5C26.7,11.6,26.7,9.7,26.5,7.9z M24.2,18.7
		c0,0.9-0.1,1.7-0.4,2.5c-0.5,1.1-1.4,2-2.5,2.5c-0.8,0.3-1.7,0.5-2.5,0.4c-1.3,0-1.8,0.1-5.3,0.1c-1.8,0.1-3.6,0-5.3-0.1
		c-0.9,0-1.7-0.1-2.5-0.4c-1.1-0.5-2-1.4-2.5-2.5c-0.3-0.8-0.5-1.7-0.4-2.5c0-1.3-0.2-1.8-0.2-5.3c-0.1-1.8,0-3.6,0.1-5.3
		c0-0.9,0.2-1.7,0.5-2.5C3.3,5,3.6,4.5,4,4.1c0.3-0.5,0.9-0.9,1.5-1C6.3,2.7,7.2,2.6,8,2.6c1.8-0.2,3.6-0.2,5.3-0.2
		c1.8-0.1,3.6,0,5.3,0.2c0.9,0,1.7,0.1,2.5,0.4c1.1,0.5,2,1.4,2.5,2.5c0.3,0.8,0.5,1.7,0.5,2.5c0,1.3,0.1,1.8,0.1,5.3
		C24.4,15.2,24.3,17,24.2,18.7z"/>
	<path class="st0" d="M13.4,6.5c-3.7-0.1-6.8,2.9-6.8,6.6c0,0.1,0,0.1,0,0.2c0,3.8,3,6.8,6.8,6.8s6.8-3,6.8-6.8S17.1,6.5,13.4,6.5z
		 M17.8,13.4c0,2.4-1.9,4.4-4.3,4.4c-0.1,0-0.1,0-0.2,0c-2.4,0-4.4-1.9-4.4-4.3c0-0.1,0-0.1,0-0.2c0-2.4,1.9-4.4,4.3-4.4
		c0.1,0,0.1,0,0.2,0c2.4,0,4.4,1.9,4.4,4.3C17.8,13.3,17.8,13.3,17.8,13.4z"/>
</g>
</svg>
