<?xml version="1.0" encoding="utf-8"?>
<!-- Generator: Adobe Illustrator 24.1.1, SVG Export Plug-In . SVG Version: 6.00 Build 0)  -->
<svg version="1.0" id="Capa_1" xmlns="http://www.w3.org/2000/svg" xmlns:xlink="http://www.w3.org/1999/xlink" x="0px" y="0px"
	 viewBox="0 0 22.61 24.66" style="enable-background:new 0 0 22.61 24.66;" xml:space="preserve">
<path id="Trazado_11849" style="fill:#E320D2;" d="M18.51,16.43c-1.15,0-2.24,0.48-3.02,1.33l-7.43-4.24c0.24-0.78,0.24-1.61,0-2.39
	l7.43-4.23c1.54,1.66,4.14,1.76,5.8,0.22s1.76-4.14,0.22-5.8c-1.54-1.66-4.14-1.76-5.8-0.22c-1.09,1.01-1.55,2.54-1.2,3.99
	l-7.53,4.3C5.34,7.8,2.74,7.84,1.16,9.47c-1.58,1.63-1.54,4.23,0.09,5.81c1.59,1.55,4.13,1.55,5.72,0l7.53,4.3
	c-0.53,2.21,0.82,4.43,3.03,4.96c2.21,0.53,4.43-0.82,4.96-3.03s-0.82-4.43-3.03-4.96C19.15,16.47,18.83,16.43,18.51,16.43z"/>
</svg>
