<?xml version="1.0" encoding="utf-8"?>
<!-- Generator: Adobe Illustrator 24.1.1, SVG Export Plug-In . SVG Version: 6.00 Build 0)  -->
<svg version="1.0" id="Capa_1" xmlns="http://www.w3.org/2000/svg" xmlns:xlink="http://www.w3.org/1999/xlink" x="0px" y="0px"
	 viewBox="0 0 48.14 46.71" style="enable-background:new 0 0 48.14 46.71;" xml:space="preserve">
<g id="Grupo_952" transform="translate(-2104.937 -583.174)">
	<g id="Grupo_950" transform="translate(2359.307 603.133)">
		<path id="Trazado_7265" style="fill:#F4F7F8;" d="M-236.44-3.05c-0.74-0.31-1.53-0.47-2.32-0.48c-2.53,0-3.41,1.13-3.41,4.04
			c0,3.08,1.19,4.25,3.35,4.25c0.86,0.01,1.71-0.19,2.47-0.59l0.19,2.13c-0.98,0.56-2.1,0.84-3.22,0.79c-3.64,0-5.54-2.09-5.54-6.59
			c0-4.2,1.7-6.47,5.61-6.47c1.04,0,2.08,0.19,3.05,0.56L-236.44-3.05z"/>
		<path id="Trazado_7266" style="fill:#F4F7F8;" d="M-227.77,5.48l-0.06-0.02c-0.88,1.04-2.19,1.62-3.56,1.57
			c-2.34,0-3.89-1.29-3.89-4.1c0-2.36,1.59-3.89,4.52-3.89c0.89,0,1.77,0.13,2.61,0.4V-1.5c0-1.57-0.75-2.2-2.64-2.2
			c-1.21-0.03-2.4,0.21-3.5,0.71l-0.23-2.2c1.33-0.56,2.76-0.84,4.21-0.81c3.52,0,4.79,1.5,4.79,4.89v7.93h-2.03L-227.77,5.48z
			 M-228.15,1.28c-0.68-0.26-1.41-0.38-2.13-0.36c-1.72,0-2.49,0.69-2.49,1.97c0,1.47,0.88,1.99,2.11,1.99
			c1.32,0,2.51-0.84,2.51-1.76V1.28z"/>
		<path id="Trazado_7267" style="fill:#F4F7F8;" d="M-212.65-5.77l-4.69,12.6h-3.12l-4.69-12.6h2.93l2.8,8.62l0.5,1.61h0.06
			l0.48-1.61l2.8-8.62H-212.65z"/>
	</g>
	<g id="Grupo_951" transform="translate(2349.88 589.177)">
		<path id="Trazado_7268" style="fill:#F4F7F8;" d="M-240.36,40.71c-2.42,0-3.56-1.03-4.09-1.89c-0.91-1.48-0.52-3.42,0.9-4.43
			c1.53-1.18,2.98-2.46,4.35-3.83c0.19-0.19,0.19-0.48,0.01-0.68c-2.08-2.36-3.22-5.39-3.22-8.53V6.91
			C-242.41-0.22-236.63-6-229.5-6h19.79c7.13,0.01,12.9,5.78,12.91,12.91v14.44c-0.01,7.13-5.78,12.9-12.91,12.91h-11.74
			C-230.66,38.6-236.85,40.71-240.36,40.71z M-229.5-3.82c-5.92,0.01-10.72,4.81-10.73,10.73v14.44c0,2.61,0.95,5.13,2.68,7.09
			c0.95,1.07,0.89,2.69-0.13,3.69c-1.45,1.44-2.98,2.79-4.6,4.04c-0.48,0.35-0.62,1.01-0.31,1.51c0.55,0.65,1.39,0.97,2.23,0.85
			c3.94,0,12.07-3.45,18.21-6.35l0.22-0.1h12.23c5.92-0.01,10.72-4.81,10.73-10.73V6.91c-0.01-5.92-4.81-10.72-10.73-10.73
			L-229.5-3.82z"/>
	</g>
</g>
</svg>
