<?xml version="1.0" encoding="utf-8"?>
<!-- Generator: Adobe Illustrator 24.1.1, SVG Export Plug-In . SVG Version: 6.00 Build 0)  -->
<svg version="1.1" id="Capa_1" xmlns="http://www.w3.org/2000/svg" xmlns:xlink="http://www.w3.org/1999/xlink" x="0px" y="0px"
	 viewBox="0 0 30 30" style="enable-background:new 0 0 30 30;" xml:space="preserve">
<path style="enable-background:new    ;" d="M29.5,26.8L23.6,21c1.7-2.3,2.6-5,2.6-7.9c0-7.2-5.8-13.1-13-13.1c-0.1,0-0.1,0-0.2,0
	C5.9,0,0.1,5.8,0,13c0,0.1,0,0.1,0,0.2c0,7.2,5.8,13.1,13,13.1c0.1,0,0.1,0,0.2,0c2.8,0,5.6-0.9,7.9-2.6l5.8,5.8
	c0.7,0.7,1.9,0.7,2.6,0C30.2,28.7,30.2,27.5,29.5,26.8z M22.5,13.1c0,5.1-4.1,9.3-9.2,9.4c-0.1,0-0.1,0-0.2,0
	c-5.1,0-9.3-4.1-9.4-9.2c0-0.1,0-0.1,0-0.2c0-5.1,4.1-9.3,9.2-9.4c0.1,0,0.1,0,0.2,0c5.1,0,9.3,4.1,9.4,9.2
	C22.5,13,22.5,13.1,22.5,13.1z"/>
</svg>
