<?xml version="1.0" encoding="utf-8"?>
<!-- Generator: Adobe Illustrator 24.1.1, SVG Export Plug-In . SVG Version: 6.00 Build 0)  -->
<svg version="1.1" id="Capa_1" xmlns="http://www.w3.org/2000/svg" xmlns:xlink="http://www.w3.org/1999/xlink" x="0px" y="0px"
	 viewBox="0 0 27 23" style="enable-background:new 0 0 27 23;" xml:space="preserve">
<style type="text/css">
	.st0{fill-rule:evenodd;clip-rule:evenodd;fill:#FFFFFF;enable-background:new    ;}
</style>
<path id="Trazado_2" class="st0" d="M8.6,22.9c10.1,0,15.6-8.3,15.6-15.6V6.6c1-0.8,1.9-1.7,2.7-2.8c-1,0.4-2,0.7-3.1,0.9
	c1.1-0.7,1.9-1.7,2.4-3c-1.1,0.6-2.2,1-3.4,1.3c-1-1.1-2.5-1.8-4-1.8c-3,0-5.4,2.5-5.5,5.5c0,0.4,0,0.8,0.1,1.2
	C8.9,7.8,4.8,5.7,2.1,2.2C1.6,3,1.4,4,1.4,5c0,1.8,0.9,3.5,2.4,4.6C2.8,9.6,2,9.3,1.2,8.9l0,0c0,2.6,1.9,4.9,4.4,5.3
	c-0.5,0.1-1,0.2-1.5,0.1c-0.3,0-0.7,0-1-0.1C3.9,16.4,5.9,18,8.3,18c-1.9,1.5-4.3,2.4-6.8,2.4c-0.5,0-0.9,0-1.3-0.1
	C2.6,22,5.6,23,8.6,22.9"/>
</svg>
