<?xml version="1.0" encoding="utf-8"?>
<!-- Generator: Adobe Illustrator 24.1.1, SVG Export Plug-In . SVG Version: 6.00 Build 0)  -->
<svg version="1.0" id="Capa_1" xmlns="http://www.w3.org/2000/svg" xmlns:xlink="http://www.w3.org/1999/xlink" x="0px" y="0px"
	 viewBox="0 0 33.82 23.14" style="enable-background:new 0 0 33.82 23.14;" xml:space="preserve">
<path id="Trazado_147" style="opacity:0.8;fill:#26285B;enable-background:new    ;" d="M33.82,7.39c0-4.08-3.31-7.39-7.4-7.39l0,0
	H7.39C3.31,0,0,3.31,0,7.39c0,0,0,0,0,0v8.35c0,4.08,3.31,7.39,7.39,7.39c0,0,0,0,0,0h19.03c4.08,0,7.39-3.31,7.4-7.39c0,0,0,0,0,0
	V7.39z M23.35,11.79l-8.51,4.19c-0.33,0.18-1.49-0.06-1.49-0.44V6.94c0-0.38,1.17-0.62,1.5-0.43l8.13,4.41
	C23.32,11.11,23.7,11.6,23.35,11.79L23.35,11.79z"/>
</svg>
