<?xml version="1.0" encoding="utf-8"?>
<!-- Generator: Adobe Illustrator 24.1.1, SVG Export Plug-In . SVG Version: 6.00 Build 0)  -->
<svg version="1.1" id="Capa_1" xmlns="http://www.w3.org/2000/svg" xmlns:xlink="http://www.w3.org/1999/xlink" x="0px" y="0px"
	 viewBox="0 0 33.8 23.1" style="enable-background:new 0 0 33.8 23.1;" xml:space="preserve">
<style type="text/css">
	.st0{fill:#FFFFFF;enable-background:new    ;}
</style>
<path id="Trazado_147" class="st0" d="M33.8,7.4c0-4.1-3.3-7.4-7.4-7.4l0,0h-19C3.3,0,0,3.3,0,7.4l0,0v8.4c0,4.1,3.3,7.4,7.4,7.4
	l0,0h19c4.1,0,7.4-3.3,7.4-7.4l0,0V7.4z M23.4,11.8L14.8,16c-0.3,0.2-1.5-0.1-1.5-0.4V6.9c0-0.4,1.2-0.6,1.5-0.4l8.1,4.4
	C23.3,11.1,23.7,11.6,23.4,11.8L23.4,11.8z"/>
</svg>
