<?xml version="1.0" encoding="utf-8"?>
<!-- Generator: Adobe Illustrator 24.1.1, SVG Export Plug-In . SVG Version: 6.00 Build 0)  -->
<svg version="1.0" id="Capa_1" xmlns="http://www.w3.org/2000/svg" xmlns:xlink="http://www.w3.org/1999/xlink" x="0px" y="0px"
	 viewBox="0 -1 27 23" xml:space="preserve">
<path id="Trazado_2" style="opacity:0.8;fill-rule:evenodd;clip-rule:evenodd;fill:#26285B;" d="M8.61,21.92
	c10.07,0,15.55-8.29,15.55-15.55V5.64c1.03-0.79,1.93-1.74,2.67-2.81c-0.99,0.43-2.04,0.73-3.11,0.89c1.1-0.69,1.94-1.73,2.37-2.96
	c-1.07,0.6-2.22,1.04-3.41,1.33c-1.01-1.14-2.47-1.79-4-1.78c-3.01,0.05-5.43,2.47-5.48,5.48c-0.03,0.4,0.02,0.8,0.15,1.18
	C8.94,6.76,4.84,4.65,2.1,1.19C1.61,2.05,1.36,3.02,1.36,4.01C1.4,5.82,2.27,7.51,3.73,8.6C2.84,8.58,1.97,8.32,1.21,7.86l0,0
	c0,2.62,1.87,4.86,4.44,5.33c-0.48,0.13-0.98,0.18-1.48,0.15c-0.35,0.02-0.7-0.03-1.04-0.15c0.74,2.25,2.82,3.79,5.18,3.85
	c-1.95,1.52-4.34,2.35-6.81,2.37c-0.45,0.02-0.9-0.03-1.33-0.15C2.62,21.04,5.59,21.97,8.61,21.92"/>
</svg>
