<?xml version="1.0" encoding="utf-8"?>
<!-- Generator: Adobe Illustrator 24.1.1, SVG Export Plug-In . SVG Version: 6.00 Build 0)  -->
<svg version="1.0" id="Layer_1" xmlns="http://www.w3.org/2000/svg" xmlns:xlink="http://www.w3.org/1999/xlink" x="0px" y="0px"
	 viewBox="0 0 136.78 64" style="enable-background:new 0 0 136.78 64;" xml:space="preserve">
<g transform="translate(0,-952.36218)">
	<path style="fill:#272555;" d="M102.93,955.86c-0.68,0.07-1.24,0.72-1.22,1.4c0,8.42-0.15,14.95-1.2,19.7
		c-0.3-1.21-0.63-2.37-0.99-3.44c-0.9-2.69-1.99-4.92-3.29-6.57c-1.3-1.66-2.92-2.81-4.81-2.81c-1.91,0-3.73,1.03-5.48,2.62
		c-1.75,1.59-3.47,3.8-5.07,6.51c-3.19,5.41-5.88,12.78-6.94,20.93c-0.71,5.36-0.47,11.21,0.52,15.53c0.5,2.16,1.13,3.95,2.17,5.22
		c0.52,0.63,1.19,1.17,2.04,1.35c0.85,0.19,1.78-0.05,2.51-0.54c2.64-1.57,5.77-2.19,8.38-1.93c2.47,0.25,5.18,0.85,8.04-0.79
		c2.49-2.36,3.52-5.62,4.02-8.64c0.62-3.5,0.79-7.36,0.79-10.53c0-1.94-0.06-3.84-0.19-5.69c1.11-1.22,2.08-2.57,2.94-4.02
		c0.87,1.45,1.83,2.8,2.94,4.02c-0.13,1.85-0.19,3.76-0.19,5.69c0,3.16,0.17,7.02,0.79,10.53c0.76,3.62,1.77,6.78,4.02,8.64
		c2.85,1.64,5.56,1.04,8.04,0.79c2.47-0.25,4.86-0.3,8.36,1.93c0.84,0.38,1.76,0.69,2.54,0.54c0.85-0.19,1.52-0.72,2.04-1.35
		c1.04-1.27,1.67-3.06,2.17-5.22c0.99-4.33,1.23-10.17,0.52-15.53c-1.06-8.15-3.75-15.52-6.94-20.93c-1.6-2.7-3.32-4.92-5.07-6.51
		c-1.75-1.59-3.56-2.62-5.48-2.62c-1.89,0-3.51,1.16-4.81,2.81c-1.3,1.66-2.38,3.88-3.29,6.57c-0.36,1.07-0.69,2.23-0.99,3.44
		c-1.05-4.75-1.2-11.28-1.2-19.7c0.02-0.78-0.75-1.48-1.53-1.4c-0.68,0.07-1.24,0.72-1.22,1.4c0,10.67,0.12,18.49,2.45,24.15
		c1.16,2.83,2.94,5.1,5.48,6.68c2.53,1.58,5.74,2.48,9.82,2.84c0.75,0.13,1.54-0.47,1.61-1.22c0.07-0.75-0.6-1.5-1.35-1.5
		c-3.15-0.28-5.61-0.9-7.52-1.83c1.72-0.79,3.66-1.84,5.37-3.31c2.74,0.21,5.86-0.49,7.73-2.11l-1.8-2.04
		c-0.87,0.77-2.12,1.19-3.35,1.35c0.41-0.93,1.2-2.44,1.46-3.44l-2.66-0.67c-0.72,2.9-3.17,5.03-5.74,6.55
		c-0.47-1.01-0.7-2.06,0.04-3.54l-2.45-1.22c-1.19,2.38-0.63,4.52,0,5.99c-0.46,0.21-0.89,0.4-1.31,0.58
		c-0.78-0.73-1.46-1.57-2.02-2.56c0.5-2.61,1.06-5.31,1.8-7.56c0.84-2.49,1.83-4.48,2.84-5.76c1-1.28,1.88-1.76,2.64-1.76
		c0.83,0,2.16,0.58,3.63,1.91c1.47,1.34,3.04,3.34,4.53,5.87c2.98,5.05,5.59,12.13,6.6,19.89c0.66,5.01,0.42,10.68-0.47,14.57
		c-0.52,1.54-0.77,3.5-2.13,4.49c-2.99-1.8-7.32-2.79-10.57-2.54c-2.63,0.26-4.36,0.66-6.27-0.39c-1.16-1-2.23-3.61-2.79-6.79
		c-0.58-3.24-0.75-6.97-0.75-10.03c0-1.11,0.02-2.19,0.06-3.27c1.81,1.4,3.92,2.51,6.42,3.29c0.51,0.81,0.96,1.54,1.38,2.23
		c-2.73,1.28-4.24,4.37-5.05,6.75l2.62,0.88c0.79-2.09,1.7-4.29,3.74-5.18c1.37,2.75,2.07,5.27,2.51,9.69l2.75-0.28
		c-0.21-2.15-0.52-3.92-0.92-5.52c1.08,0.59,2.34,1.73,3.97,3.78l2.15-1.72c-2.56-3.2-4.79-4.94-7.15-5.26
		c-0.6-1.5-1.36-2.96-2.28-4.53c0.89,0.14,1.8,0.26,2.77,0.32c0.76,0.13,1.56-0.5,1.61-1.27c0.05-0.77-0.67-1.5-1.44-1.46
		c-9.83-0.66-14.03-4.9-17.34-11.45c-0.28-0.64-0.67-0.93-1.29-0.94c-0.72,0.02-1.03,0.45-1.33,0.97
		c-3.31,6.54-7.52,10.77-17.34,11.43c-0.77-0.04-1.48,0.69-1.44,1.46c0.05,0.77,0.85,1.4,1.61,1.27c0.7-0.05,1.37-0.13,2.02-0.21
		c-0.89,1.53-1.63,2.96-2.21,4.43c-2.37,0.32-4.59,2.06-7.15,5.26l2.15,1.72c1.64-2.05,2.9-3.2,3.97-3.78
		c-0.4,1.6-0.71,3.38-0.92,5.52l2.75,0.28c0.44-4.41,1.12-6.94,2.49-9.69c2.11,0.86,3.16,3.42,3.76,5.18l2.62-0.88
		c-1.06-2.74-2.39-5.64-5.05-6.75c0.37-0.63,0.78-1.28,1.22-2c2.87-0.78,5.26-1.98,7.26-3.52c0.05,1.08,0.06,2.16,0.06,3.27
		c0,3.06-0.17,6.79-0.75,10.03c-0.57,3.18-1.64,5.79-2.79,6.79c-1.91,1.05-3.65,0.65-6.27,0.39c-4.75,0.18-7.37,0.65-10.57,2.54
		c-1.25-0.98-1.83-3.22-2.13-4.49c-0.89-3.89-1.14-9.55-0.47-14.57c1.01-7.76,3.62-14.84,6.6-19.89c1.49-2.53,3.07-4.53,4.53-5.87
		c1.47-1.34,2.8-1.91,3.63-1.91c0.76,0,1.64,0.48,2.64,1.76c1,1.28,2,3.26,2.84,5.76c0.73,2.17,1.34,4.74,1.8,7.54
		c-0.58,0.97-1.31,1.91-2.02,2.58c-0.42-0.18-0.85-0.37-1.31-0.58c0.63-1.47,1.19-3.61,0-5.99l-2.45,1.22
		c0.74,1.48,0.51,2.54,0.04,3.54c-2.56-1.52-5.01-3.65-5.74-6.55l-2.66,0.67c0.32,1.29,0.87,2.42,1.55,3.44
		c-1.24-0.27-2.6-0.63-3.44-1.35l-1.8,2.04c2.31,1.77,5.02,2.37,7.73,2.11c1.71,1.47,3.65,2.52,5.37,3.31
		c-1.91,0.93-4.37,1.55-7.52,1.83c-0.76,0.01-1.43,0.75-1.35,1.5c0.07,0.76,0.87,1.36,1.61,1.22c4.08-0.36,7.28-1.25,9.82-2.84
		c2.53-1.58,4.32-3.85,5.48-6.68c2.33-5.66,2.45-13.48,2.45-24.15C104.48,956.48,103.71,955.78,102.93,955.86L102.93,955.86z"/>
</g>
<g>
	<path style="fill:#272555;" d="M57.63,42.47v10.05h-8.15V42.47H39.43v-8.45h10.05V23.97h8.15v10.05h10.17v8.45H57.63z"/>
</g>
<g>
	<g>
		<g>
			<path style="fill:#272555;" d="M21,36.4c0,2.09,0.01,4.17-0.01,6.26c0,0.38,0.1,0.67,0.36,0.96c2.18,2.44,3.25,5.32,3.13,8.59
				c-0.22,5.96-4.63,10.8-10.53,11.66C7.46,64.82,1.21,60.26,0.18,53.82c-0.62-3.85,0.38-7.24,2.93-10.17
				c0.28-0.33,0.38-0.64,0.38-1.05C3.48,38.51,3.45,13.16,3.5,9.07c0.05-4.31,2.87-8.42,7.31-8.99c2.79-0.36,5.67,0.6,7.7,2.55
				c1.66,1.91,2.51,4.12,2.5,6.66C20.99,11.24,21,34.45,21,36.4z M17.53,37.2c0-2.26,0.01-25.78,0-28.04
				c-0.03-2.18-0.84-3.94-2.28-4.86c-1.61-1.03-4.03-1.38-5.68-0.25c-1.65,1.13-2.58,3.08-2.6,5.05
				c-0.03,4.33-0.04,29.92,0.01,34.25c0.01,0.93-0.23,1.58-0.91,2.23c-1.6,1.52-2.47,3.44-2.6,5.64c-0.32,5.57,4.42,9.94,9.95,9.22
				c5.16-0.67,8.6-5.78,7.31-10.83c-0.47-1.86-1.52-3.34-2.89-4.62c-0.24-0.23-0.34-0.47-0.34-0.8
				C17.53,41.85,17.53,39.52,17.53,37.2z"/>
			<path style="fill:#E6007E;" d="M14.67,46.42c-0.03-0.11-0.04-0.22-0.04-0.32c-0.02-1.93-0.03-29.01-0.03-29.01
				c0-1.28-1.05-2.31-2.35-2.31c-1.3,0-2.35,1.03-2.35,2.31c0,0,0,24.69,0.02,28.86c0,0.15-0.01,0.3-0.04,0.43
				c-2.13,0.91-3.63,3.03-3.63,5.5c0,0.56,0.08,1.11,0.22,1.62c0.71,2.51,3.02,4.36,5.76,4.36c2.89,0,5.3-2.05,5.86-4.77
				c0,0,0,0,0,0c0.08-0.39,0.12-0.79,0.12-1.2C18.22,49.45,16.76,47.35,14.67,46.42z"/>
		</g>
	</g>
</g>
</svg>
