<?xml version="1.0" encoding="utf-8"?>
<!-- Generator: Adobe Illustrator 24.1.1, SVG Export Plug-In . SVG Version: 6.00 Build 0)  -->
<svg version="1.0" id="Capa_1" xmlns="http://www.w3.org/2000/svg" xmlns:xlink="http://www.w3.org/1999/xlink" x="0px" y="0px"
	 viewBox="0 0 136.78 165.78" style="enable-background:new 0 0 136.78 165.78;" xml:space="preserve">
<g id="Grupo_1239" transform="translate(88.47 0)">
	<g id="Grupo_1153" transform="translate(0 0)">
		<path id="Trazado_12586" style="fill:#26285B;" d="M40.76,66.12l-22.42-0.71c-2.26,1.09-1.02,3.8,0,5.25l22.42,0.71V66.12z"/>
		<path id="Trazado_12587" style="fill:#26285B;" d="M40.76,95.95L19.2,90.97c-1.77,0.82,2.37,3.72-0.94,4.81l22.49,4.81
			L40.76,95.95z"/>
		<path id="Trazado_12588" style="fill:#26285B;" d="M40.76,34.09l-21.16,6v4.71l21.16-5.35V34.09z"/>
		<path id="Trazado_12589" style="fill:#26285B;" d="M46.52,0.57c-1.11-0.69-2.51-0.75-3.68-0.16L14.93,14.36l2.58,7.16L40.76,9.89
			v117.05L17.48,115.5c-0.52-0.26-1.09-0.39-1.67-0.39l-0.88,7.56l27.93,13.73c1.87,0.92,4.13,0.15,5.06-1.72
			c0.26-0.52,0.39-1.09,0.39-1.67V3.78C48.31,2.47,47.64,1.25,46.52,0.57z"/>
		<path id="Trazado_12590" style="fill:#26285B;" d="M19.6,20.47l-7.56,0.59v30.44c2.56-0.49,5.08-1.14,7.56-1.95V20.47z"/>
		<path id="Trazado_12591" style="fill:#26285B;" d="M12.04,115.11l7.56,3.78V45.52c-2.49,0.71-5.01,1.29-7.56,1.72V115.11z"/>
		<path id="Trazado_12592" style="fill:#26285B;" d="M-57.64,115.5l-1.75,0.86l-21.52,10.58V9.85l23.27,11.44
			c0.51,0.25,2.56-7.16,2.56-7.16L-83.03,0.39c-1.87-0.92-4.14-0.15-5.06,1.73c-0.25,0.52-0.39,1.09-0.39,1.67V133
			c0,2.09,1.69,3.78,3.78,3.78c0,0,0,0,0,0c0.58,0,1.15-0.13,1.67-0.39l27.93-13.73l-0.88-7.56
			C-56.56,115.11-57.13,115.24-57.64,115.5z"/>
		<g id="Grupo_1148" transform="translate(28.716 14.073)">
			<g id="Grupo_1147">
				<path id="Trazado_12593" style="fill:#26285B;" d="M-80.91,7.62l71.4-0.15L-12.44,0l-72.25,0.05c-1,0-3.78,5.91-3.78,5.91v14.12
					l7.56,1.23L-80.91,7.62z"/>
			</g>
		</g>
		<g id="Grupo_1150" transform="translate(28.716 102.938)">
			<g id="Grupo_1149">
				<path id="Trazado_12594" style="fill:#26285B;" d="M-17.07,12.17h-63.84V0c-2.16,0.48-5.33,1.06-7.56,1.32v14.63
					c0,2.09,1.69,3.78,3.78,3.78h75.18l-1.51-7.56L-17.07,12.17z"/>
			</g>
		</g>
		<g id="Grupo_1152" transform="translate(28.716 34.15)">
			<g id="Grupo_1151">
				<path id="Trazado_12595" style="fill:#26285B;" d="M-80.91,1.23L-88.47,0v70.11c2.22-0.27,5.4-0.84,7.56-1.32V1.23z"/>
			</g>
		</g>
		<path id="Trazado_12596" style="fill:#26285B;" d="M-80.91,97v4.71l21.27-6.03l0.02-4.72L-80.91,97z"/>
		<path id="Trazado_12597" style="fill:#26285B;" d="M-80.91,35.67v4.64l21.13,4.55l0.02-4.63L-80.91,35.67z"/>
		<rect id="Rectángulo_137492" x="-80.91" y="66.13" style="fill:#26285B;" width="21.16" height="4.53"/>
	</g>
	<g id="Grupo_1155" transform="translate(74.196 133.829)">
		<g id="Grupo_1154">
			<path id="Trazado_12598" style="fill:#26285B;" d="M-61.5,19.46c-11.05-0.24-17.96-4.42-18.93-18.36
				c-0.04-0.61-0.54-1.09-1.16-1.09h-5.71c-0.64,0-1.16,0.51-1.17,1.14c-0.17,18.15,13.11,27.18,27.08,26.32L-61.5,19.46z"/>
		</g>
		<path id="Trazado_12599" style="fill:#26285B;" d="M-61.68,15.77v15.24c0,0.52,0.42,0.94,0.94,0.94c0.16,0,0.32-0.04,0.46-0.12
			l13.52-7.62c0.45-0.26,0.61-0.83,0.36-1.28c-0.08-0.15-0.21-0.27-0.36-0.36l-13.52-7.62c-0.45-0.25-1.03-0.09-1.28,0.36
			C-61.64,15.45-61.68,15.61-61.68,15.77z"/>
	</g>
	<g id="Grupo_1157" transform="translate(19.711 133.829)">
		<g id="Grupo_1156" transform="translate(15.111)">
			<path id="Trazado_12600" style="fill:#26285B;" d="M-88.35,19.46c11.05-0.24,17.96-4.42,18.93-18.36
				c0.04-0.61,0.54-1.09,1.16-1.09h5.71c0.64,0,1.16,0.51,1.17,1.14c0.17,18.15-13.11,27.18-27.08,26.32L-88.35,19.46z"/>
		</g>
		<path id="Trazado_12601" style="fill:#26285B;" d="M-73.07,15.77v15.24c0,0.52-0.42,0.94-0.94,0.94c-0.16,0-0.32-0.04-0.46-0.12
			l-13.53-7.62c-0.45-0.26-0.61-0.83-0.36-1.28c0.08-0.15,0.21-0.27,0.36-0.36l13.52-7.62c0.45-0.26,1.03-0.1,1.28,0.36
			C-73.11,15.45-73.07,15.61-73.07,15.77z"/>
	</g>
</g>
</svg>
