<?xml version="1.0" encoding="utf-8"?>
<!-- Generator: Adobe Illustrator 24.1.1, SVG Export Plug-In . SVG Version: 6.00 Build 0)  -->
<svg version="1.0" id="Layer_1" xmlns="http://www.w3.org/2000/svg" xmlns:xlink="http://www.w3.org/1999/xlink" x="0px" y="0px"
	 viewBox="0 0 132.5 64.21" style="enable-background:new 0 0 132.5 64.21;" xml:space="preserve">
<g>
	<g>
		<g>
			<path style="fill:#272555;" d="M92.3,17.53h0.43c1.56,0,3.08-0.54,4.3-1.51l1.72-1.38c0.82-0.66,1.82-1.01,2.88-1.01
				c2,0,3.73,1.25,4.35,3.1l0.73,2.2c0.73,2.2,2.2,4.02,4.17,5.19l0.42-0.42c0.84-0.84,1.95-1.3,3.14-1.3
				c1.22,0,2.31,0.45,3.13,1.28c0.82,0.82,1.28,1.92,1.28,3.08c0,2.43-0.9,4.66-2.52,6.36l7.33,7.33l2.52-3.02
				c4.07-4.89,6.32-11.08,6.32-17.44C132.5,8.96,123.54,0,112.52,0c-2.15,0-4.28,0.34-6.32,1.03l-0.77,0.26
				c-2.65,0.88-5.56,0.88-8.21,0l-3.07-1.02C93.64,0.09,93.11,0,92.56,0c-4.83,0-8.77,3.93-8.77,8.77v0.29
				C83.8,13.73,87.61,17.53,92.3,17.53z"/>
			<path style="fill:#272555;" d="M121.3,50.65c0.5,0,0.98,0.05,1.46,0.14v-8.5l-9.17-9.17l1.23-1.23c1.35-1.35,2.1-3.15,2.1-5.07
				c0-0.71-0.25-1.31-0.7-1.77c-0.45-0.45-1.06-0.71-1.7-0.71c-0.72,0-1.35,0.26-1.81,0.72l-1.43,1.44l-0.63-0.31
				c-2.75-1.37-4.79-3.73-5.76-6.64l-0.73-2.2c-0.35-1.06-1.34-1.77-2.46-1.77c-0.66,0-1.24,0.2-1.71,0.58l-1.73,1.38
				c-1.41,1.13-3.15,1.8-4.95,1.91c-0.48,1.64-0.74,3.34-0.74,5.05v3.53c0,1.51-0.19,3.02-0.55,4.49l-0.26,1.02
				c0.87,0.36,1.82,0.54,2.76,0.54h0.76l0.97,3.9h5.08v0.97c0,1.49-0.61,2.96-1.66,4.01l-0.11,0.11c1.07,2.24,3.31,3.67,5.82,3.67
				c0.47,0,0.94-0.05,1.4-0.15l7.97-1.77l0.42,1.9l-2.16,0.48v0.46c0,1.57-0.76,3.05-2.04,3.96l-2.68,1.92
				c-1.09,0.78-1.96,1.78-2.58,2.95h7.57l0.03-0.1C114.47,52.96,117.68,50.65,121.3,50.65z M99.92,30.09l-5.11-2.55l3.88-3.88
				l1.38,1.38l-1.97,1.97l2.69,1.34L99.92,30.09z"/>
			<path style="fill:#272555;" d="M121.3,52.6c-2.6,0-4.92,1.54-5.93,3.9h11.86C126.22,54.14,123.9,52.6,121.3,52.6z"/>
			<path style="fill:#272555;" d="M91.69,56.18c-0.28,0.21-0.61,0.32-0.96,0.32c-0.6,0-1.09-0.49-1.09-1.09
				c0-0.29,0.12-0.57,0.32-0.77l0.74-0.74c0.57-0.57,0.89-1.35,0.89-2.15c0-1.68-1.36-3.04-3.04-3.04h-0.13
				c-0.69,0-1.36,0.24-1.9,0.67l-3.27,2.62c-0.39,0.31-0.9,0.4-1.38,0.24c-0.6-0.2-1-0.76-1-1.39c0-0.45,0.2-0.86,0.55-1.14
				l3.22-2.57c0.7-0.56,1.11-1.4,1.11-2.3c0-1.63-1.32-2.95-2.95-2.95h-5.82c-0.54,0-0.97-0.44-0.97-0.97
				c0-0.54,0.44-0.97,0.97-0.97h5.99c1.53,0,2.78-1.25,2.78-2.78c0-1.06-0.59-2.01-1.54-2.49l-1.53-0.76
				c-0.51-0.26-0.83-0.77-0.83-1.35c0-0.77,0.62-1.39,1.39-1.39c0.21,0,0.43,0.05,0.62,0.15l3.4,1.7l0.87-1.74l-3.4-1.7
				c-0.46-0.23-0.98-0.35-1.49-0.35c-1.84,0-3.34,1.5-3.34,3.34c0,1.32,0.73,2.5,1.91,3.09l1.53,0.76c0.28,0.14,0.46,0.43,0.46,0.74
				c0,0.46-0.37,0.83-0.83,0.83h-5.99c-1.61,0-2.92,1.31-2.92,2.92c0,1.61,1.31,2.92,2.92,2.92h5.82c0.55,0,1,0.45,1,1
				c0,0.3-0.14,0.59-0.38,0.78l-3.22,2.57c-0.81,0.65-1.28,1.62-1.28,2.66c0,1.47,0.94,2.77,2.33,3.23c1.1,0.37,2.3,0.15,3.2-0.57
				l3.27-2.62c0.19-0.15,0.44-0.24,0.68-0.24h0.13c0.6,0,1.09,0.49,1.09,1.09c0,0.29-0.12,0.57-0.32,0.77l-0.74,0.74
				c-0.57,0.57-0.89,1.35-0.89,2.15c0,1.68,1.36,3.04,3.04,3.04c0.76,0,1.52-0.25,2.13-0.71l3.21-2.41l-1.17-1.56L91.69,56.18z"/>
			<rect x="87.69" y="41.89" style="fill:#272555;" width="1.95" height="1.95"/>
			<rect x="89.64" y="37.99" style="fill:#272555;" width="1.95" height="1.95"/>
			<rect x="91.59" y="43.83" style="fill:#272555;" width="1.95" height="1.95"/>
			<rect x="93.54" y="47.73" style="fill:#272555;" width="1.95" height="1.95"/>
		</g>
	</g>
	<g>
		<path style="fill:#272555;" d="M57.63,42.68v10.05h-8.15V42.68H39.43v-8.45h10.05V24.18h8.15v10.05h10.17v8.45H57.63z"/>
	</g>
	<g>
		<g>
			<g>
				<path style="fill:#272555;" d="M21,36.61c0,2.09,0.01,4.17-0.01,6.26c0,0.38,0.1,0.67,0.36,0.96c2.18,2.44,3.25,5.32,3.13,8.59
					c-0.22,5.96-4.63,10.8-10.53,11.66C7.46,65.03,1.21,60.47,0.18,54.03c-0.62-3.85,0.38-7.24,2.93-10.17
					c0.28-0.33,0.38-0.64,0.38-1.05C3.48,38.72,3.45,13.36,3.5,9.28c0.05-4.31,2.87-8.42,7.31-8.99c2.79-0.36,5.67,0.6,7.7,2.55
					c1.66,1.91,2.51,4.12,2.5,6.66C20.99,11.44,21,34.66,21,36.61z M17.53,37.41c0-2.26,0.01-25.78,0-28.04
					c-0.03-2.18-0.84-3.94-2.28-4.86c-1.61-1.03-4.03-1.38-5.68-0.25C7.91,5.38,6.98,7.33,6.97,9.3
					c-0.03,4.33-0.04,29.92,0.01,34.25c0.01,0.93-0.23,1.58-0.91,2.23c-1.6,1.52-2.47,3.44-2.6,5.64c-0.32,5.57,4.42,9.94,9.95,9.22
					c5.16-0.67,8.6-5.78,7.31-10.83c-0.47-1.86-1.52-3.34-2.89-4.62c-0.24-0.23-0.34-0.47-0.34-0.8
					C17.53,42.06,17.53,39.73,17.53,37.41z"/>
				<path style="fill:#E6007E;" d="M14.67,46.63c-0.03-0.11-0.04-0.22-0.04-0.32C14.61,44.38,14.6,17.3,14.6,17.3
					c0-1.28-1.05-2.31-2.35-2.31c-1.3,0-2.35,1.03-2.35,2.31c0,0,0,24.69,0.02,28.86c0,0.15-0.01,0.3-0.04,0.43
					c-2.13,0.91-3.63,3.03-3.63,5.5c0,0.56,0.08,1.11,0.22,1.62c0.71,2.51,3.02,4.36,5.76,4.36c2.89,0,5.3-2.05,5.86-4.77
					c0,0,0,0,0,0c0.08-0.39,0.12-0.79,0.12-1.2C18.22,49.66,16.76,47.56,14.67,46.63z"/>
			</g>
		</g>
	</g>
</g>
</svg>
