<?xml version="1.0" encoding="utf-8"?>
<!-- Generator: Adobe Illustrator 24.1.1, SVG Export Plug-In . SVG Version: 6.00 Build 0)  -->
<svg version="1.0" id="Capa_1" xmlns="http://www.w3.org/2000/svg" xmlns:xlink="http://www.w3.org/1999/xlink" x="0px" y="0px"
	 viewBox="0 0 123.66 152.33" style="enable-background:new 0 0 123.66 152.33;" xml:space="preserve">
<g id="Grupo_1146" transform="translate(76.313 0)">
	<g id="Grupo_1145" transform="translate(0 0)">
		<path id="Trazado_12585" style="fill:#26285B;" d="M7.26,152.33h-18.6c-12.26,0-23.92-5.36-31.89-14.67L-72,104.1
			c-5.09-5.69-5.74-14.08-1.6-20.49c5.11-7.53,15.35-9.49,22.88-4.38c0,0,0,0,0,0c0.35,0.24,0.69,0.49,1.03,0.76l8.86,7.09v-56.4
			c-0.14-6.86,4.58-12.86,11.27-14.36c2.96-0.59,6.04-0.2,8.77,1.09v-2.55C-20.96,7.77-16.04,1.61-9.12,0.2
			c6.87-1.15,13.55,2.9,15.69,9.52c2.73-1.48,5.88-2.02,8.95-1.52c6.97,1.39,11.94,7.59,11.77,14.7v2.51
			c2.73-1.3,5.81-1.68,8.77-1.09c6.69,1.5,11.4,7.51,11.27,14.36v73.56C47.34,134.38,29.4,152.33,7.26,152.33
			C7.26,152.33,7.26,152.33,7.26,152.33z M-59.96,84.4c-4.67,0.01-8.45,3.8-8.44,8.47c0,2,0.72,3.94,2.02,5.46l29.23,34.11
			c6.46,7.53,15.88,11.87,25.81,11.87h18.6c17.71,0,32.07-14.36,32.07-32.07V38.09c0-3.32-2.69-6.01-6.01-6.01s-6.01,2.69-6.01,6.01
			v34.07c0,2.21-1.79,4.01-4.01,4.01s-4.01-1.79-4.01-4.01V22.05c0-3.32-2.69-6.01-6.01-6.01s-6.01,2.69-6.01,6.01v50.11
			c0,2.21-1.79,4.01-4.01,4.01c-2.21,0-4.01-1.79-4.01-4.01l0,0V14.04c0-3.32-2.69-6.01-6.01-6.01c-3.32,0-6.01,2.69-6.01,6.01
			v58.12c0,2.21-1.8,4.01-4.01,4.01c-2.21,0-4-1.79-4.01-4.01V30.07c0-3.32-2.69-6.01-6.01-6.01s-6.01,2.69-6.01,6.01V92.2
			c0,2.21-1.79,4.01-4,4.01h-4.01c-0.91,0-1.79-0.31-2.5-0.88l-11.36-9.09C-56.2,85.05-58.05,84.39-59.96,84.4z"/>
	</g>
</g>
</svg>
