<?xml version="1.0" encoding="utf-8"?>
<!-- Generator: Adobe Illustrator 24.1.1, SVG Export Plug-In . SVG Version: 6.00 Build 0)  -->
<svg version="1.0" id="Capa_1" xmlns="http://www.w3.org/2000/svg" xmlns:xlink="http://www.w3.org/1999/xlink" x="0px" y="0px"
	 viewBox="0 0 152.23 165.33" style="enable-background:new 0 0 152.23 165.33;" xml:space="preserve">
<g id="Grupo_1143" transform="translate(0 0)">
	<path id="Trazado_12584" style="fill:#26285B;" d="M69.92,165.33c-1.54,0-2.89-1.04-3.29-2.53l-11.11-39.12H18.25
		c-0.14,0-0.29,0-0.43,0c-7.27,0.15-13.82-4.35-16.3-11.18c-3.32-8.51-1.08-18.18,5.63-24.37l24.18-21.7
		c1.78-1.69,4.98-3.05,8.18-4.3v-29.8c0-14.07,12.6-31.06,28.24-31.06c1.88,0,3.41,1.52,3.41,3.4V4.7
		c4.33-2.99,9.49-4.52,14.75-4.38c1.83,0.06,3.28,1.54,3.31,3.37l0.02,1.73c3.83-2.34,7.98-4.12,12.31-5.3
		c1.82-0.49,3.69,0.6,4.18,2.42c0.08,0.28,0.11,0.57,0.12,0.86l0.28,57.69c10.97-5.72,24.5-1.47,30.22,9.49
		c0.69,1.31,1.24,2.69,1.65,4.12l14.12,52.73c0.49,1.82-0.59,3.69-2.41,4.18s-3.69-0.59-4.18-2.41l0,0L131.4,76.46
		c-2.49-8.25-11.19-12.93-19.45-10.44c-0.68,0.2-1.34,0.45-1.98,0.75c5.27,3.96,6.33,11.45,2.37,16.72
		c-1.45,1.93-3.45,3.37-5.73,4.14c4.38,2.51,8.43,5.55,12.06,9.06c0.08,0.08,0.16,0.17,0.24,0.26c6.91,8.26,10.32,16.18,10.42,24.22
		c0,0.05,0,0.09,0,0.14c0.04,3.09-1.66,5.95-4.4,7.37c-0.7,0.35-1.45,0.6-2.23,0.73l6.29,21.92c0.52,1.81-0.53,3.7-2.34,4.22
		c-1.81,0.52-3.7-0.53-4.22-2.34l0,0l-5.07-17.69c-0.82,0.36-1.69,0.58-2.58,0.65c-0.57,3.87-3.89,6.75-7.81,6.74
		c-0.9,3.53-4.11,5.98-7.75,5.91c-4.47-0.04-8.05-3.69-8.01-8.16c0-0.04,0-0.08,0-0.13c-0.29-11.33-5.32-16.54-16.29-16.84H62.57
		l10.64,37.35c0.49,1.82-0.6,3.69-2.42,4.18C70.51,165.29,70.21,165.33,69.92,165.33L69.92,165.33z M58.21,116.86h16.85
		c14.64,0.39,22.59,8.53,22.98,23.53c0.02,1.38,0.79,1.59,1.25,1.59c0.74,0,1.15-0.51,1.2-1.54c-0.12-9.3-1.82-15.24-5.67-19.84
		c-1.21-1.44-1.02-3.6,0.42-4.81c1.44-1.21,3.6-1.02,4.81,0.42c5.08,6.07,6.64,13.38,7.1,19.84c0.11-0.02,0.22-0.05,0.32-0.1
		c0.4-0.2,0.61-0.68,0.65-1.42c-0.12-9.3-1.82-15.24-5.67-19.84c-1.25-1.41-1.12-3.56,0.29-4.81s3.56-1.12,4.81,0.29
		c0.04,0.05,0.08,0.09,0.12,0.14c4.84,5.78,6.48,12.68,7.02,18.91c0.44-0.33,0.68-0.86,0.62-1.41c-0.12-9.3-1.82-15.24-5.67-19.84
		c-1.23-1.43-1.07-3.58,0.35-4.81c1.43-1.23,3.58-1.07,4.81,0.35c0.02,0.03,0.05,0.05,0.07,0.08c4.85,5.79,6.49,12.72,7.03,18.97
		c0.44-0.33,0.67-0.86,0.62-1.4c-0.1-6.42-2.87-12.69-8.71-19.71c-3.39-3.26-14.91-13.2-29-13.2H42.92c-1.88,0-3.41-1.53-3.41-3.41
		V69.5c-1.24,0.47-2.42,1.11-3.49,1.89c-0.03,0.03-0.06,0.06-0.09,0.09L11.68,93.23c-5.08,4.48-5.76,11.83-3.81,16.79
		c1.5,4.33,5.69,7.13,10.27,6.84h39.92C58.11,116.86,58.16,116.86,58.21,116.86L58.21,116.86z M46.34,81.44h38.46
		c5,0.03,9.95,0.98,14.62,2.78L99.04,8.13c-4.46,1.77-8.83,4.34-10.18,6.67c-0.94,1.63-3.03,2.19-4.66,1.25
		c-1.04-0.6-1.69-1.71-1.7-2.92l-0.06-5.79c-4.91,0.79-9.45,3.63-11.69,7.53c-0.94,1.63-3.03,2.19-4.66,1.25
		c-1.05-0.61-1.7-1.73-1.71-2.94l-0.02-4.69c-9.88,2.32-18.02,14.24-18.02,23.84v15.35c4.87,0.96,8.94,6.86,10.12,14.7
		c0.28,1.86-1,3.6-2.86,3.88c-0.47,0.07-0.95,0.04-1.4-0.08l-5.85-1.59L46.34,81.44z M106.17,72.46l0.04,7.67
		c2.11-1.89,2.29-5.13,0.4-7.24C106.47,72.74,106.33,72.59,106.17,72.46z M46.33,57.53l1.8,0.49c-0.45-1-1.06-1.92-1.8-2.74V57.53z
		 M67.2,66.31c-1.88,0-3.41-1.53-3.41-3.41c0-0.33,0.05-0.67,0.15-0.99c2.58-7.85,9.55-13.45,17.78-14.28
		c1.88-0.18,3.54,1.19,3.72,3.07c0.18,1.88-1.19,3.54-3.07,3.72c-2.94,0.32-5.72,1.54-7.94,3.5l4.7-0.97
		c1.85-0.38,3.65,0.81,4.03,2.65s-0.81,3.65-2.65,4.03l-12.61,2.6C67.66,66.28,67.43,66.3,67.2,66.31L67.2,66.31z"/>
</g>
</svg>
