<?xml version="1.0" encoding="utf-8"?>
<!-- Generator: Adobe Illustrator 24.1.1, SVG Export Plug-In . SVG Version: 6.00 Build 0)  -->
<svg version="1.0" id="Layer_1" xmlns="http://www.w3.org/2000/svg" xmlns:xlink="http://www.w3.org/1999/xlink" x="0px" y="0px"
	 viewBox="0 0 82.91 55.88" style="enable-background:new 0 0 82.91 55.88;" xml:space="preserve">
<polygon style="fill:#24245A;" points="34.94,29.12 34.94,35.22 30,35.22 30,29.12 23.9,29.12 23.9,24 30,24 30,17.91 34.94,17.91 
	34.94,24 41.11,24 41.11,29.12 "/>
<path style="fill:#24245A;" d="M65.91,19.28c-0.21-0.36-0.65-0.46-0.97-0.22c-0.32,0.24-0.41,0.74-0.19,1.1
	c0.57,0.97-0.48,2.7-1.16,3.48c-0.44,0.5-0.12,1.35,0.49,1.35c0.18,0,0.36-0.08,0.49-0.23C64.69,24.63,67.29,21.63,65.91,19.28z"/>
<path style="fill:#24245A;" d="M12.73,25.45c0,1.27,0,2.53,0,3.8c0,0.23,0.06,0.4,0.22,0.58c1.32,1.48,1.97,3.23,1.9,5.21
	c-0.14,3.61-2.81,6.55-6.38,7.07c-3.93,0.58-7.72-2.19-8.35-6.09c-0.37-2.33,0.23-4.39,1.78-6.17c0.17-0.2,0.23-0.39,0.23-0.64
	c-0.01-2.48-0.03-17.85,0-20.33c0.03-2.61,1.74-5.1,4.43-5.45c1.69-0.22,3.44,0.36,4.67,1.55c1,1.16,1.52,2.5,1.51,4.04
	C12.72,10.19,12.73,24.26,12.73,25.45 M10.62,25.93c0-1.37,0.01-15.63,0-17c-0.02-1.32-0.51-2.39-1.38-2.94
	C8.27,5.36,6.8,5.15,5.8,5.83c-1,0.68-1.57,1.87-1.57,3.06C4.2,11.51,4.2,27.03,4.23,29.65c0.01,0.56-0.14,0.96-0.55,1.35
	c-0.97,0.92-1.5,2.08-1.57,3.42c-0.19,3.37,2.68,6.03,6.03,5.59c3.13-0.41,5.22-3.5,4.43-6.56c-0.29-1.13-0.92-2.03-1.75-2.8
	c-0.15-0.14-0.2-0.28-0.2-0.49C10.63,28.75,10.63,27.34,10.62,25.93"/>
<path style="fill:#EC008C;" d="M8.89,31.52c-0.02-0.07-0.02-0.13-0.02-0.19c-0.01-1.17-0.02-17.58-0.02-17.58
	c0-0.77-0.64-1.4-1.42-1.4c-0.79,0-1.42,0.63-1.42,1.4c0,0,0,14.97,0.01,17.5c0,0.09-0.01,0.18-0.02,0.26
	c-1.29,0.55-2.2,1.84-2.2,3.33c0,0.34,0.05,0.67,0.14,0.98c0.43,1.52,1.83,2.64,3.49,2.64c1.75,0,3.21-1.24,3.55-2.89v0
	c0.05-0.24,0.07-0.48,0.07-0.73C11.05,33.35,10.16,32.08,8.89,31.52"/>
<path style="fill:#24245A;" d="M60.1,35.52c-0.04,1.66-0.3,5.48-1.76,8.99h1.53c0.45-1.19,0.81-2.47,1.08-3.86
	c0.64-3.29,0.55-5.93,0.54-6.05c-0.02-0.46-0.37-0.8-0.77-0.75c-3.58,0.45-7.7,0.76-8.39,0.49c-0.48-0.19-0.6-1.17-0.58-2.28
	c0.67,0.03,1.36,0,2.02-0.1c0.37-0.06,0.65-0.43,0.62-0.85c-0.03-0.46-0.4-0.79-0.79-0.72c-0.69,0.11-1.32,0.11-1.77,0.09
	c0.15-2,0.42-3.91-0.62-4.5c-0.42-0.24-0.92-0.43-1.4-0.57c-0.6-0.18-0.95-0.88-0.78-1.56c0.61-2.49,1.46-6.58,1.25-9.54
	c-0.1-1.42,0.18-3.04,0.85-4.93c4.43,3.72,7.21,1,8.92,6.26c1.12,3.46,0.72,7.72,0.74,7.89c0.07,0.86,1.18,1.01,1.38,0.07
	c0.39-1.75,1.47-4.98,2.9-5.76c0.43-0.23,0.85-0.23,1.33,0.03c1.82,0.96,1.1,5.77-1.42,7.51c-0.18,0.13-0.31,0.34-0.33,0.59
	c-0.26,2.62,1.33,5.87,2.73,7.72c0.22,0.29,0.48,0.28,0.79,0.28c0.41,0,1.22-0.03,2.17-0.23c0.12,3,0.44,6.64,1.39,10.77h1.45
	c-1.02-4.32-1.34-8.1-1.46-11.17c1.42-0.52,2.88-1.48,3.75-3.22C77.55,25.98,79.67,0,64.85,0c-6.81,0-7.71,1.25-16.12,2.33
	c-0.34,0.04-0.6,0.36-0.62,0.75c-0.08,1.91,0.72,3.78,1.93,5.19c-0.89,2.34-1.26,4.36-1.14,6.16c0.2,2.88-0.73,7.13-1.32,9.44
	c-0.25,0.99-0.67,2.18,0.14,2.69c0.48,0.06,1.9,0.31,2.8,0.79c0.47,1.35-1.36,7.44,1.36,8.48C53.04,36.28,57.96,35.77,60.1,35.52z
	 M49.52,3.82c7.95-1.07,8.82-2.23,15.32-2.23c13.3,0,11.13,24.32,9.42,27.75c-1.37,2.75-4.94,3.01-6.01,3.03
	c-1.07-1.55-2.26-3.9-2.23-5.87c3.06-2.44,3.93-8.51,0.98-10.08c-2.08-1.1-3.75,0.56-4.84,2.84c-0.33-3.98-1.61-8.06-5.07-8.83
	c-2.21-0.49-4.6-1.5-6.14-3.36C50.14,6.09,49.64,4.94,49.52,3.82z"/>
<circle style="fill:#EC008C;" cx="51.38" cy="23.75" r="2.38"/>
<circle style="fill:#EC008C;" cx="53.99" cy="30.92" r="2.38"/>
</svg>
