<?xml version="1.0" encoding="utf-8"?>
<!-- Generator: Adobe Illustrator 24.1.1, SVG Export Plug-In . SVG Version: 6.00 Build 0)  -->
<svg version="1.0" id="Capa_1" xmlns="http://www.w3.org/2000/svg" xmlns:xlink="http://www.w3.org/1999/xlink" x="0px" y="0px"
	 viewBox="0 0 168.54 152.42" style="enable-background:new 0 0 168.54 152.42;" xml:space="preserve">
<g id="Grupo_1232" transform="translate(72.294 0)">
	<g id="Grupo_1141" transform="translate(0 0)">
		<g id="Grupo_1135" transform="translate(73.044 108.139)">
			<path id="Trazado_12578" style="fill:#26285B;" d="M-42.71,16.26c-7.72,0-17.12-2.15-25.46-4.39c-0.54-0.15-1-0.27-1.36-0.36
				c-1.97-0.52-3.14-2.55-2.62-4.52c0.52-1.95,2.51-3.12,4.47-2.63c0.38,0.1,0.86,0.23,1.42,0.38c5.58,1.58,11.26,2.8,17,3.65
				c10.07,1.33,13.19-0.36,14.07-1.15c0.29-0.26,0.97-0.88,0.64-2.98c-0.32-2.01,1.06-3.9,3.07-4.22c2.01-0.32,3.9,1.06,4.22,3.07
				c0.79,5.01-1.19,8-3,9.62C-33.09,15.29-37.53,16.26-42.71,16.26z"/>
		</g>
		<g id="Grupo_1136" transform="translate(0 95.979)">
			<path id="Trazado_12579" style="fill:#26285B;" d="M-28.01,51.67H-68.6c-2.04,0-3.69-1.65-3.69-3.69c0,0,0,0,0,0V3.69
				c0-2.04,1.65-3.69,3.69-3.69c0,0,0,0,0,0h40.59c2.04,0,3.69,1.65,3.69,3.69c0,0,0,0,0,0v44.29
				C-24.32,50.01-25.97,51.67-28.01,51.67z M-64.92,44.28h33.22V7.38h-33.22V44.28z"/>
		</g>
		<g id="Grupo_1137" transform="translate(40.643 90.626)">
			<path id="Trazado_12580" style="fill:#26285B;" d="M-13.48,61.79L-13.48,61.79c-8.81,0-15.35-2.5-21.12-4.71
				c-5.19-1.99-10.1-3.86-16.29-3.86c-5.63,0.16-11.19,1.36-16.38,3.54c-1.9,0.74-4.04-0.2-4.78-2.1c-0.17-0.43-0.25-0.88-0.25-1.34
				V7.92c0-1.43,0.83-2.74,2.13-3.34c3.4-1.67,6.99-2.95,10.68-3.8c3.27-0.58,6.58-0.84,9.9-0.78c11,0.07,21.95,1.57,32.56,4.47
				C-4.83,7.99,2.42,12.96,4.6,19.25c9.29-6.52,21.76-12.78,30.96-14.11c0.97-0.14,1.94-0.2,2.92-0.2c7.83,0,16.52,3.71,17.11,11.87
				c0.28,3.98-2.41,8.43-8.45,14.03c-5.72,5.09-11.88,9.67-18.41,13.67C15.97,52.54-0.81,60.95-9.55,61.63
				C-10.87,61.74-12.19,61.79-13.48,61.79z M-50.89,45.84c7.55,0,13.33,2.21,18.92,4.35c5.68,2.17,11.04,4.22,18.49,4.22l0,0
				c1.09,0,2.21-0.04,3.35-0.13c6.18-0.48,21.19-7.37,34.91-16.01c18.01-11.35,23.57-19.01,23.43-20.94c-0.26-3.64-6.12-5-9.74-5
				c-0.62,0-1.24,0.04-1.85,0.13c-9.88,1.42-24.87,9.89-33.1,16.93c-1.55,1.32-3.88,1.14-5.2-0.41c-0.9-1.06-1.13-2.54-0.6-3.82
				c0.27-0.81,0.32-1.67,0.13-2.5c-0.61-4.13-6.78-8.16-16.93-11.09c-9.95-2.71-20.2-4.12-30.51-4.18C-52.4,7.32-55.21,7.53-57.99,8
				c-2.38,0.54-4.7,1.31-6.93,2.31v37.82C-60.38,46.67-55.65,45.9-50.89,45.84z"/>
		</g>
		<g id="Grupo_1138" transform="translate(84.882 25.831)">
			<path id="Trazado_12581" style="fill:#26285B;" d="M-46.87,63.85c-14.04,0-25.42-11.38-25.42-25.42
				c0-8.66,6.95-17.08,13.67-25.23c3.14-3.64,6.05-7.46,8.71-11.46C-49.24,0.66-48.06,0-46.78,0l0,0c1.27,0,2.46,0.66,3.13,1.74
				c2.61,3.93,5.44,7.71,8.5,11.3c6.73,8.26,13.68,16.8,13.68,25.38C-21.47,52.46-32.84,63.84-46.87,63.85L-46.87,63.85z
				 M-46.79,10.2c-1.93,2.6-4.06,5.17-6.14,7.69c-5.89,7.14-11.99,14.52-11.99,20.53c-0.01,6.7,3.71,12.85,9.64,15.97
				c8.82,4.63,19.73,1.23,24.36-7.59c1.36-2.58,2.07-5.46,2.07-8.38c0-5.95-6.11-13.46-12.03-20.72
				C-42.88,15.24-44.93,12.72-46.79,10.2L-46.79,10.2z"/>
		</g>
		<g id="Grupo_1139" transform="translate(123.777)">
			<path id="Trazado_12582" style="fill:#26285B;" d="M-55.39,41.7c-9.33,0-16.9-7.57-16.9-16.9c0-5.78,4.39-11.11,8.64-16.25
				c1.87-2.16,3.6-4.44,5.18-6.81C-57.79,0.66-56.61,0-55.34,0l0,0c1.27,0,2.46,0.66,3.13,1.74c1.55,2.34,3.24,4.58,5.06,6.72
				c4.25,5.22,8.64,10.61,8.64,16.34C-38.51,34.13-46.07,41.69-55.39,41.7L-55.39,41.7z M-55.35,10.03
				c-0.85,1.09-1.74,2.16-2.61,3.21c-3.42,4.14-6.96,8.43-6.96,11.56c0,3.54,1.96,6.78,5.09,8.43c4.37,2.3,9.77,0.87,12.43-3.29
				c0.99-1.53,1.51-3.32,1.51-5.14c0-3.11-3.71-7.66-6.98-11.68C-53.7,12.1-54.54,11.07-55.35,10.03L-55.35,10.03z"/>
		</g>
		<g id="Grupo_1140" transform="translate(57.209 26.849)">
			<path id="Trazado_12583" style="fill:#26285B;" d="M-59.61,31.3c-7,0-12.68-5.68-12.69-12.68c0,0,0,0,0,0
				c0-4.34,3.3-8.33,6.49-12.2c1.4-1.62,2.7-3.33,3.89-5.11c0.51-0.81,1.39-1.3,2.35-1.3l0,0c0.96,0,1.85,0.5,2.35,1.31
				c1.16,1.76,2.43,3.44,3.8,5.04c3.19,3.92,6.49,7.96,6.49,12.27C-46.94,25.62-52.61,31.29-59.61,31.3L-59.61,31.3z M-59.58,7.53
				c-0.64,0.82-1.3,1.62-1.96,2.41c-2.56,3.11-5.22,6.32-5.22,8.67c0,2.65,1.47,5.09,3.82,6.32c3.49,1.83,7.81,0.48,9.64-3.01
				c0.54-1.02,0.82-2.16,0.82-3.31c0-2.33-2.78-5.75-5.24-8.77C-58.34,9.08-58.96,8.31-59.58,7.53z"/>
		</g>
	</g>
</g>
</svg>
