<?xml version="1.0" encoding="utf-8"?>
<!-- Generator: Adobe Illustrator 24.1.1, SVG Export Plug-In . SVG Version: 6.00 Build 0)  -->
<svg version="1.0" id="Capa_1" xmlns="http://www.w3.org/2000/svg" xmlns:xlink="http://www.w3.org/1999/xlink" x="0px" y="0px"
	 viewBox="0 0 209.35 150.62" style="enable-background:new 0 0 209.35 150.62;" xml:space="preserve">
<g id="Grupo_1250" transform="translate(52.238 0)">
	<path id="Trazado_12635" style="fill:#26285B;" d="M51.62,78.63c21.71,0,39.31-17.6,39.31-39.31S73.33,0,51.62,0
		S12.31,17.6,12.31,39.31c0,0,0,0,0,0C12.33,61.02,29.92,78.6,51.62,78.63z M51.62,7.53c17.55,0,31.78,14.23,31.78,31.78
		S69.17,71.09,51.62,71.09c-17.55,0-31.78-14.23-31.78-31.78C19.86,21.77,34.08,7.55,51.62,7.53L51.62,7.53z"/>
	<path id="Trazado_12636" style="fill:#26285B;" d="M-19.87,69.92c13.49,0,24.43-10.94,24.43-24.43c0-13.49-10.94-24.43-24.43-24.43
		c-13.49,0-24.43,10.94-24.43,24.43C-44.28,58.97-33.35,69.91-19.87,69.92z M-19.87,28.59c9.33,0,16.9,7.57,16.9,16.9
		c0,9.33-7.57,16.9-16.9,16.9s-16.9-7.57-16.9-16.9C-36.76,36.16-29.2,28.6-19.87,28.59L-19.87,28.59z"/>
	<path id="Trazado_12637" style="fill:#26285B;" d="M77.33,83.68h-4.21c-1.28-0.1-2.51,0.56-3.14,1.68
		c-0.46,0.53-4.61,4.8-17.95,4.8c-12.91,0-16.62-3.97-17.1-4.57c-0.57-1.28-1.9-2.05-3.29-1.92h-2.32
		c-23.18,0.03-41.96,18.81-41.99,42v7.9c0.01,9.41,7.64,17.04,17.05,17.05h95.31c9.41-0.01,17.04-7.64,17.05-17.05v-10.49
		C116.71,101.32,99.08,83.7,77.33,83.68z M109.19,133.56c-0.01,5.25-4.26,9.51-9.52,9.52H4.37c-5.25-0.01-9.51-4.26-9.52-9.52v-7.9
		c0.02-19.02,15.43-34.43,34.45-34.45h0.52c2.53,2.59,8.61,6.48,22.2,6.48c13.68,0,20.11-4.04,22.75-6.48h2.56
		c17.59,0.02,31.84,14.27,31.86,31.86L109.19,133.56z"/>
	<path id="Trazado_12638" style="fill:#26285B;" d="M7.65,81.66c-1.47-4.05-5.72-6.81-12.84-6.81h-24.75
		c-12.26,0-22.29,8.84-22.29,24.41v9.75c0,5.43,3.47,9.84,7.75,9.84h24.88C-17.84,88.52,7.65,81.66,7.65,81.66z M-10.15,83.1
		c-8.56,7.19-14.29,17.19-16.14,28.22h-17.75c-0.47-0.67-0.7-1.48-0.66-2.3v-9.76c0-10.41,5.65-16.88,14.76-16.88h20.67
		C-9.57,82.62-9.86,82.86-10.15,83.1L-10.15,83.1z"/>
	<path id="Trazado_12639" style="fill:#26285B;" d="M124.73,69.92c13.49,0,24.43-10.94,24.43-24.43c0-13.49-10.94-24.43-24.43-24.44
		c-13.49,0-24.43,10.94-24.43,24.43c0,0,0,0,0,0C100.32,58.97,111.25,69.9,124.73,69.92z M124.73,28.59c9.33,0,16.9,7.57,16.9,16.9
		c0,9.33-7.57,16.9-16.9,16.9c-9.33,0-16.9-7.57-16.9-16.9C107.84,36.16,115.4,28.6,124.73,28.59L124.73,28.59z"/>
	<path id="Trazado_12640" style="fill:#26285B;" d="M134.81,74.86h-24.75c-7.12,0-11.37,2.76-12.84,6.81c0,0,25.49,6.86,27.26,37.2
		h24.88c4.28,0,7.75-4.41,7.75-9.84v-9.76C157.11,83.7,147.07,74.86,134.81,74.86z M149.57,109.02c0.04,0.82-0.2,1.63-0.66,2.3
		h-17.75c-1.85-11.03-7.58-21.04-16.14-28.22c-0.29-0.24-0.58-0.48-0.87-0.71h20.66c9.1,0,14.76,6.47,14.76,16.88L149.57,109.02z"/>
</g>
</svg>
