<?xml version="1.0" encoding="utf-8"?>
<!-- Generator: Adobe Illustrator 24.1.1, SVG Export Plug-In . SVG Version: 6.00 Build 0)  -->
<svg version="1.0" id="Layer_1" xmlns="http://www.w3.org/2000/svg" xmlns:xlink="http://www.w3.org/1999/xlink" x="0px" y="0px"
	 viewBox="0 0 142.8 69.13" style="enable-background:new 0 0 142.8 69.13;" xml:space="preserve">
<g>
	<g>
		<g>
			<path style="fill:#272555;" d="M140.54,66.4c-3.24-7.55-9.49-11.52-19.67-12.5c-4.09-0.39-7.32-2.6-8.88-6.06
				c-0.68-1.51-1-3.22-0.94-4.93c0.06-1.7,0.52-3.47,1.31-5.11c0.29-0.6,0.63-1.2,1.01-1.77c0.26-0.39,1.2-2.56,1.2-2.58
				c0.34-0.76,0.62-1.51,0.85-2.23c0.03-0.1,0.06-0.19,0.08-0.29c1.48-0.35,2.58-1.18,3.28-2.48c1.05-1.96,1.58-4.18,1.58-6.59
				c0-1.95-0.89-3.28-2.57-3.88c0.02-0.12,0.04-0.24,0.05-0.36c0.52-3.98-0.22-7.23-2.25-9.94c-3.55-4.75-8.55-7.26-15.28-7.68
				L100.2,0l-0.11,0.01c-6.73,0.41-11.73,2.92-15.28,7.67c-2.03,2.71-2.76,5.96-2.25,9.94c0.02,0.12,0.03,0.24,0.05,0.36
				c-1.68,0.6-2.57,1.93-2.57,3.89c0,2.41,0.53,4.63,1.58,6.59c0.69,1.3,1.8,2.13,3.28,2.48c0.03,0.09,0.05,0.19,0.08,0.28
				c0.29,0.94,0.57,1.75,0.87,2.5c0.24,0.61,0.45,1.09,0.68,1.53c0.16,0.31,0.35,0.59,0.54,0.85c0.12,0.17,0.23,0.33,0.34,0.5
				c0.29,0.47,0.55,0.96,0.77,1.45c0.45,0.97,0.77,1.97,0.97,2.98c0.39,2.01,0.27,4.05-0.37,5.9c-0.1,0.3-0.22,0.6-0.35,0.89
				c-1.56,3.47-4.8,5.69-8.89,6.07c-10.17,0.98-16.42,4.95-19.67,12.5c-0.26,0.61-0.2,1.31,0.16,1.86c0.36,0.55,0.96,0.87,1.62,0.87
				c0.78,0,1.48-0.46,1.78-1.17c2.66-6.27,7.58-9.32,16.47-10.18c5.53-0.52,9.93-3.57,12.08-8.37c0.91-2.05,1.35-4.31,1.27-6.6
				c2.04,1.4,4.16,2.14,6.32,2.2c0.22,0.01,0.46,0.01,0.61,0c0.21,0.01,0.43,0.01,0.64,0c2.16-0.07,4.28-0.81,6.33-2.21
				c-0.08,2.3,0.36,4.56,1.27,6.62c2.15,4.79,6.55,7.83,12.07,8.35c8.9,0.86,13.84,3.9,16.49,10.18c0.3,0.71,1,1.17,1.78,1.17
				c0.65,0,1.26-0.33,1.62-0.87C140.74,67.7,140.8,67.01,140.54,66.4z M100.14,41.36c-0.15,0-0.3,0.01-0.45,0
				c-3.75-0.11-6.74-3.42-8.2-5.42c-0.49-0.98-1.07-1.92-1.71-2.8c-0.07-0.17-0.16-0.33-0.28-0.49c-0.43-0.88-0.78-1.73-1.02-2.53
				c-0.07-0.22-0.12-0.48-0.19-0.77c-0.03-0.16-0.07-0.32-0.1-0.48l-0.32-1.38l-1.41-0.04c-1.23-0.03-1.46-0.45-1.6-0.73
				c-0.76-1.43-1.15-3.06-1.15-4.87c0-0.3,0.02-0.39,0.03-0.4c0.01-0.01,0.11-0.08,0.56-0.14c0.21-0.03,0.41-0.07,0.59-0.1
				l1.92-0.37l-0.29-1.76c-0.04-0.25-0.08-0.49-0.12-0.72c-0.07-0.43-0.15-0.83-0.2-1.21c-0.39-2.99,0.12-5.37,1.55-7.28
				c2.85-3.82,6.93-5.85,12.47-6.21c5.54,0.36,9.61,2.39,12.47,6.21c1.43,1.91,1.94,4.29,1.55,7.28c-0.05,0.39-0.12,0.79-0.19,1.21
				c-0.04,0.23-0.08,0.47-0.12,0.73l-0.29,1.76l1.92,0.37c0.18,0.04,0.38,0.08,0.58,0.1c0.46,0.07,0.55,0.13,0.56,0.13
				c0.01,0.02,0.04,0.11,0.04,0.41c0,1.81-0.39,3.45-1.15,4.87c-0.15,0.28-0.37,0.69-1.6,0.73l-1.41,0.04l-0.32,1.38
				c-0.04,0.16-0.07,0.32-0.11,0.48c-0.06,0.28-0.12,0.55-0.19,0.78c-0.25,0.8-0.6,1.66-1.03,2.54c-0.12,0.15-0.21,0.31-0.26,0.46
				l-0.01,0.02c-0.65,0.89-1.23,1.82-1.71,2.79c-1.46,2-4.45,5.31-8.21,5.43c-0.15,0-0.3,0.01-0.45,0l-0.04,0H100.14z"/>
		</g>
		<circle style="fill:#E6007E;" cx="100.2" cy="56.4" r="5.09"/>
		<g>
			<g>
				<path style="fill:#272555;" d="M121.83,43.08l4.1-10.8c0.12-0.31,0.35-0.55,0.65-0.69c0.3-0.14,0.64-0.15,0.95-0.03l0.98,0.37
					c0.31,0.12,0.55,0.35,0.69,0.65c0.14,0.3,0.15,0.65,0.03,0.96l-2.38,6.31l13.8-6.21c0.62-0.28,1.33-0.01,1.61,0.61l0.43,0.96
					c0.28,0.62,0.03,1.38-0.59,1.66l-13.85,6.23l6.36,2.4c0.31,0.12,0.55,0.34,0.69,0.64c0.14,0.3,0.14,0.63,0.03,0.94l-0.37,0.98
					c-0.12,0.31-0.35,0.55-0.65,0.69c-0.3,0.14-0.64,0.15-0.95,0.03l-10.8-4.1c-0.31-0.12-0.55-0.35-0.69-0.65
					C121.72,43.73,121.71,43.39,121.83,43.08z"/>
			</g>
		</g>
	</g>
	<g>
		<path style="fill:#272555;" d="M57.63,46.21v10.05h-8.15V46.21H39.43v-8.45h10.05V27.71h8.15v10.05h10.17v8.45H57.63z"/>
	</g>
	<g>
		<g>
			<g>
				<path style="fill:#272555;" d="M21,40.14c0,2.09,0.01,4.17-0.01,6.26c0,0.38,0.1,0.67,0.36,0.96c2.18,2.44,3.25,5.32,3.13,8.59
					c-0.22,5.96-4.63,10.8-10.53,11.66C7.46,68.56,1.21,64,0.18,57.56c-0.62-3.85,0.38-7.24,2.93-10.17
					c0.28-0.33,0.38-0.64,0.38-1.05C3.48,42.25,3.45,16.89,3.5,12.81C3.55,8.5,6.37,4.39,10.8,3.81c2.79-0.36,5.67,0.6,7.7,2.55
					c1.66,1.91,2.51,4.12,2.5,6.66C20.99,14.97,21,38.19,21,40.14z M17.53,40.94c0-2.26,0.01-25.78,0-28.04
					c-0.03-2.18-0.84-3.94-2.28-4.86c-1.61-1.03-4.03-1.38-5.68-0.25c-1.65,1.13-2.58,3.08-2.6,5.05
					c-0.03,4.33-0.04,29.92,0.01,34.25c0.01,0.93-0.23,1.58-0.91,2.23c-1.6,1.52-2.47,3.44-2.6,5.64c-0.32,5.57,4.42,9.94,9.95,9.22
					c5.16-0.67,8.6-5.78,7.31-10.83c-0.47-1.86-1.52-3.34-2.89-4.62c-0.24-0.23-0.34-0.47-0.34-0.8
					C17.53,45.59,17.53,43.26,17.53,40.94z"/>
				<path style="fill:#E6007E;" d="M14.67,50.16c-0.03-0.11-0.04-0.22-0.04-0.32c-0.02-1.93-0.03-29.01-0.03-29.01
					c0-1.28-1.05-2.31-2.35-2.31c-1.3,0-2.35,1.03-2.35,2.31c0,0,0,24.69,0.02,28.86c0,0.15-0.01,0.3-0.04,0.43
					c-2.13,0.91-3.63,3.03-3.63,5.5c0,0.56,0.08,1.11,0.22,1.62c0.71,2.51,3.02,4.36,5.76,4.36c2.89,0,5.3-2.05,5.86-4.77
					c0,0,0,0,0,0c0.08-0.39,0.12-0.79,0.12-1.2C18.22,53.19,16.76,51.09,14.67,50.16z"/>
			</g>
		</g>
	</g>
</g>
</svg>
