<?xml version="1.0" encoding="utf-8"?>
<!-- Generator: Adobe Illustrator 24.1.1, SVG Export Plug-In . SVG Version: 6.00 Build 0)  -->
<svg version="1.0" id="Capa_1" xmlns="http://www.w3.org/2000/svg" xmlns:xlink="http://www.w3.org/1999/xlink" x="0px" y="0px"
	 viewBox="0 0 157.63 152.57" style="enable-background:new 0 0 157.63 152.57;" xml:space="preserve">
<g id="Grupo_1160" transform="translate(67.903 0)">
	<g id="Grupo_1159" transform="translate(0 0)">
		<path id="Trazado_12602" style="fill:#26285B;" d="M-12.92,135H-24.3L8.29,10.9c0.68-2.59,0.1-5.35-1.55-7.46
			C5.09,1.27,2.52,0-0.21,0c-3.78-0.01-7.08,2.53-8.06,6.17L-42.08,135h-14.24c-6.39,0.01-11.58,5.19-11.58,11.58v5.99h66.57v-5.99
			C-1.34,140.18-6.52,135-12.92,135z M-2.08,7.79c0.23-0.84,1-1.42,1.87-1.4C0.53,6.4,1.23,6.75,1.67,7.35
			C2.11,7.89,2.27,8.6,2.1,9.28L-30.7,134.2h-4.57L-2.08,7.79z M-56.32,141.39h30.62c2.7,0.01,4.95,2.1,5.15,4.79h-40.95
			C-61.28,143.48-59.03,141.39-56.32,141.39z M-14.14,146.18c-0.06-1.67-0.47-3.3-1.22-4.79h2.44c2.71,0,4.97,2.09,5.18,4.79H-14.14
			z"/>
		<path id="Trazado_12603" style="fill:#26285B;" d="M73.62,61.24H43.4v5.06h-8.45c-1.09-3.6-3.91-6.41-7.51-7.49
			c0.19-11.88,3.26-21.63,8.5-26.88c3-3.04,7.12-4.71,11.38-4.61c11.01,0,20.01,20.08,20.04,36.38l6.39-0.02
			c-0.04-19.82-11.9-42.76-26.43-42.76c-5.97-0.12-11.73,2.23-15.91,6.49c-8.6,8.62-10.23,22.83-10.37,31.39
			c-3.61,1.08-6.43,3.9-7.52,7.5H-2.63l-1.12,11.22l9.17,75.05h69.56l2.73-22.37h3.36c4.78,0,8.65-3.88,8.66-8.65v-44.2
			C89.72,68.46,82.51,61.25,73.62,61.24z M69.32,146.18H11.08l-0.65-5.33h30.04v-6.38H9.65l-3.71-30.35h31.34v-6.39H5.16l-0.78-6.39
			h32.9v-6.39H3.59l-0.92-7.49l0.48-4.76h16.28v-3.2c0-2.65,2.15-4.79,4.8-4.79c2.64,0,4.79,2.15,4.79,4.79v3.2H43.4v48.85
			c0.01,4.78,3.88,8.65,8.65,8.65h19.23L69.32,146.18z M83.34,121.55c0,1.25-1.01,2.26-2.26,2.27h-19.7V93.59h-6.39v30.22h-2.93
			c-1.25,0-2.26-1.02-2.26-2.27V67.63h23.83c5.36,0.01,9.71,4.35,9.72,9.72L83.34,121.55z"/>
	</g>
</g>
</svg>
