<?xml version="1.0" encoding="utf-8"?>
<!-- Generator: Adobe Illustrator 24.1.1, SVG Export Plug-In . SVG Version: 6.00 Build 0)  -->
<svg version="1.0" id="Capa_1" xmlns="http://www.w3.org/2000/svg" xmlns:xlink="http://www.w3.org/1999/xlink" x="0px" y="0px"
	 viewBox="0 0 76.84 76.84" style="enable-background:new 0 0 76.84 76.84;" xml:space="preserve">
<g id="Grupo_829" transform="translate(-136 1563.695)">
	<g id="Grupo_492" transform="translate(0 0)">
		<path id="Trazado_231" style="fill:#09B0F7;" d="M174.42-1563.69c21.22,0,38.42,17.2,38.42,38.42s-17.2,38.42-38.42,38.42
			s-38.42-17.2-38.42-38.42S153.2-1563.69,174.42-1563.69C174.42-1563.69,174.42-1563.69,174.42-1563.69z"/>
		<path id="Trazado_232" style="fill:#F0F6F8;" d="M193.53-1517.03l-0.03,0.26c-7.7-3.84-8.5-4.35-9.5-2.86
			c-0.69,1.03-2.7,3.38-3.3,4.07s-1.22,0.74-2.26,0.26c-3.09-1.23-5.93-2.99-8.41-5.21c-2.28-2.12-4.24-4.57-5.81-7.26
			c-1.02-1.77,1.12-2.03,3.07-5.73c0.28-0.59,0.25-1.28-0.09-1.84c-0.26-0.53-2.35-5.68-3.23-7.74c-0.84-2.05-1.71-1.79-2.35-1.79
			c-2.02-0.17-3.49-0.15-4.79,1.21c-5.65,6.22-4.23,12.64,0.61,19.46c9.5,12.46,14.56,14.75,23.82,17.93
			c2.13,0.65,4.38,0.79,6.58,0.43c2.01-0.32,6.19-2.53,7.06-5c0.89-2.47,0.89-4.52,0.63-5
			C195.27-1516.3,194.59-1516.56,193.53-1517.03L193.53-1517.03z"/>
	</g>
</g>
</svg>
