<?xml version="1.0" encoding="utf-8"?>
<!-- Generator: Adobe Illustrator 24.1.1, SVG Export Plug-In . SVG Version: 6.00 Build 0)  -->
<svg version="1.0" id="Capa_1" xmlns="http://www.w3.org/2000/svg" xmlns:xlink="http://www.w3.org/1999/xlink" x="0px" y="0px"
	 viewBox="0 0 172.05 171.82" style="enable-background:new 0 0 172.05 171.82;" xml:space="preserve">
<g id="Grupo_107" transform="translate(38.562 238.513)">
	<g id="Grupo_58" transform="translate(1287 87.479)">
		<g id="Grupo_57">
			<path id="Trazado_50" style="fill:#FFFFFF;" d="M-1196.96-204.8c-0.13-3.86-1.77-7.52-4.55-10.2c-5.33-5.14-9.81-8.11-14.11-9.35
				c-6.01-1.74-11.56-0.17-16.54,4.69l-4.77,4.74c-5.68-3.34-10.9-7.41-15.53-12.09l-0.5-0.5c-4.68-4.63-8.75-9.86-12.09-15.53
				l4.76-4.8c4.83-4.95,6.4-10.5,4.67-16.51c-1.24-4.3-4.21-8.78-9.35-14.11c-5.57-5.78-14.72-6.11-20.7-0.75l-0.11,0.1
				c-0.06,0.05-0.11,0.11-0.17,0.16c-4.31,4.4-7.12,10.04-8.03,16.13l0,0c-0.56,2.57-0.73,5.21-0.5,7.82
				c0.38,7.12,2.09,14.11,5.04,20.6c0.13,0.3,0.29,0.58,0.48,0.84c0.15,0.36,0.3,0.71,0.46,1.07c2.32,5.18,5.24,10.06,8.71,14.55
				c0.09,0.16,0.2,0.32,0.31,0.47c4.69,6.18,10.17,11.73,16.29,16.5c1.41,1.13,2.31,1.78,2.47,1.9l0.02-0.03
				c11.89,8.63,25.03,13.58,36.9,13.64h0.21c9.18,0,16.98-2.96,22.58-8.55c0.06-0.06,0.11-0.11,0.16-0.17l0.1-0.11
				C-1198.18-197.17-1196.82-200.94-1196.96-204.8z M-1207.26-200.11c-3.93,3.88-9.58,5.93-16.36,5.93h-0.17
				c-10.11-0.05-21.47-4.41-31.89-12.01l0.01-0.02c-0.17-0.12-17.24-12.44-24.84-29.79c-4.62-10.57-5.33-17.91-5.28-21.68
				c0.25-6.2,2.28-11.38,5.89-15.02l0.03-0.02c2.48-2.24,6.3-2.1,8.61,0.31c7.16,7.43,10.24,12.83,4.74,18.47l-6.98,7.03
				c-1.26,1.28-1.61,3.2-0.89,4.84c0.18,0.4,4.51,9.97,15.26,20.72l0.5,0.5c10.77,10.77,20.32,15.08,20.72,15.26
				c1.64,0.72,3.56,0.37,4.84-0.89l7.03-6.98c4.27-4.16,8.66-4.72,18.47,4.74C-1205.15-206.41-1205.02-202.59-1207.26-200.11z"/>
			<path id="Trazado_51" style="fill:#FFFFFF;" d="M-1209.3-154.17h-110.76c-3.04,0-5.5-2.46-5.5-5.5l0,0v-110.76
				c0.13-30.81,25.21-55.68,56.02-55.56c30.63,0.13,55.43,24.93,55.56,55.56c0,1.64-0.07,3.28-0.21,4.91
				c1.63-0.14,3.27-0.22,4.91-0.21c30.81,0,55.79,24.98,55.79,55.79S-1178.49-154.17-1209.3-154.17L-1209.3-154.17z
				 M-1314.56-165.18h105.26c24.73-0.02,44.76-20.09,44.74-44.82s-20.09-44.76-44.82-44.74c-3.43,0-6.85,0.4-10.19,1.18
				c-2.96,0.7-5.92-1.14-6.61-4.09c-0.2-0.83-0.2-1.69,0-2.52c5.67-24.07-9.25-48.19-33.32-53.86
				c-24.07-5.67-48.19,9.25-53.86,33.32c-0.79,3.37-1.19,6.81-1.19,10.27L-1314.56-165.18z"/>
		</g>
	</g>
</g>
</svg>
