<?xml version="1.0" encoding="utf-8"?>
<!-- Generator: Adobe Illustrator 24.1.1, SVG Export Plug-In . SVG Version: 6.00 Build 0)  -->
<svg version="1.0" id="Capa_1" xmlns="http://www.w3.org/2000/svg" xmlns:xlink="http://www.w3.org/1999/xlink" x="0px" y="0px"
	 viewBox="0 0 60.41 54.99" style="enable-background:new 0 0 60.41 54.99;" xml:space="preserve">
<g>
	<path id="Trazado_7262_1_" style="fill:#F4F7F8;" d="M60.11,23.82c-0.66-1.23-2.45-2.27-5.31-3.09l3.18-9.84
		c0.66-2.06-0.46-4.26-2.52-4.93L37.64,0.18c-2.05-0.66-4.26,0.46-4.92,2.52c0,0,0,0,0,0.01l-1.88,5.83
		c-0.07-0.06-0.15-0.11-0.22-0.16c-0.62-0.44-1.4-0.59-2.13-0.39c-1.35,0.38-2.04,2.26-2.84,4.44c-0.33,1.04-0.77,2.04-1.3,2.98
		c-2.4,3.29-5.03,6.4-7.89,9.31c-3.01,3.06-3.73,4.28-5.5,9.27c-0.93,2.63-4.74,5.67-10.2,8.1c-0.12,0.05-0.19,0.09-0.22,0.1
		c-0.48,0.24-0.67,0.82-0.43,1.3c0.16,0.32,0.5,0.53,0.86,0.53c0.15,0,0.3-0.04,0.44-0.11l0.14-0.06
		c8.24-3.68,10.57-7.36,11.23-9.22c1.66-4.69,2.27-5.73,5.06-8.56c2.94-2.98,5.65-6.18,8.11-9.57c0.63-1.08,1.14-2.22,1.52-3.41
		c0.39-1.05,1.1-3.01,1.56-3.25c0.19-0.03,0.38,0.03,0.53,0.15c0.31,0.23,0.58,0.51,0.78,0.84c0.04,0.11,0.1,0.21,0.18,0.3
		c0.25,0.45,0.42,0.94,0.5,1.45c0.2,1.53-0.62,5.45-2.41,8.36c-1.87,3.04-3.91,6.87-3.93,6.91l-0.04,0.08l-1.21,3.74
		c-0.05,0.08-0.1,0.16-0.12,0.26l-2.57,7.96c-0.66,2.06,0.46,4.26,2.52,4.93l10.01,3.24c-1.68,1.09-3.49,1.97-5.38,2.62
		c-4.3,1.05-6.2,1.21-7.04,1.17c-1.54-0.09-5.02,0.48-5.86,1.62c-0.31,0.43-0.22,1.04,0.22,1.35c0.41,0.3,0.99,0.23,1.32-0.17
		c1.32-0.61,2.76-0.91,4.22-0.87c1.43,0.08,3.92-0.32,7.61-1.22c2.44-0.6,6.57-3.22,7.33-3.72l5.4,1.75
		c2.05,0.66,4.26-0.46,4.92-2.52c0,0,0,0,0-0.01l1.03-3.19c0.81,0.23,1.67,0.19,2.44-0.13l3.14-1.28c1.93-0.79,2.85-2.98,2.07-4.91
		c-0.22-0.55-0.57-1.04-1.02-1.43c1.89-0.88,2.7-3.12,1.82-5.01c-0.65-1.4-2.09-2.25-3.63-2.17L52,29.43
		c0.23,0.02,0.56,0.03,0.97,0.03c2.15,0,6.31-0.44,7.34-3.76C60.5,25.08,60.43,24.39,60.11,23.82z M44.07,47.45
		c-0.32,1-1.39,1.55-2.39,1.23c0,0,0,0,0,0L23.86,42.9c-1-0.33-1.55-1.4-1.22-2.4l2.57-7.96c0.03-0.09,0.04-0.17,0.05-0.26l1.16-3.6
		c0.29-0.55,2.14-3.97,3.83-6.73c1.94-3.16,2.95-7.52,2.68-9.62c-0.09-0.66-0.29-1.29-0.59-1.89l2.29-7.11
		c0.32-1,1.39-1.55,2.39-1.23c0,0,0,0,0,0l17.82,5.77c1,0.33,1.55,1.4,1.22,2.4l-6.52,20.21c-0.02,0.06-0.03,0.12-0.04,0.19
		l-0.67,0.27c-1.93,0.79-2.85,2.99-2.07,4.91c0.22,0.55,0.57,1.04,1.02,1.42l-1.16,0.47c-1.93,0.78-2.85,2.98-2.07,4.9
		c0.17,0.41,0.4,0.79,0.7,1.12L44.07,47.45z M51.86,41.67l-3.14,1.28c-0.93,0.38-2-0.07-2.38-1c0,0,0,0,0,0
		c-0.38-0.94,0.07-2.01,1.01-2.39l3.14-1.28c0.93-0.38,2,0.07,2.38,1c0,0,0,0,0,0C53.25,40.22,52.8,41.29,51.86,41.67L51.86,41.67z
		 M52.76,32.02c0.45,0.19,0.8,0.55,0.98,1c0.38,0.94-0.07,2.01-1.01,2.39l-1.8,0.73c-0.94,0.38-2-0.07-2.38-1.01c0,0,0,0,0,0
		c-0.38-0.94,0.07-2.01,1.01-2.39l1.8-0.73C51.81,31.83,52.31,31.83,52.76,32.02L52.76,32.02z M58.46,25.13
		c-0.7,2.24-4.28,2.42-5.85,2.39l1.6-4.95l0.02,0.01c3.31,0.95,4.04,1.9,4.18,2.17C58.48,24.86,58.5,25,58.46,25.13L58.46,25.13z"/>
	<path id="Trazado_7263_1_" style="fill:#F4F7F8;" d="M41.15,6.67l7.66,2.48c0.36,0.11,0.74-0.1,0.84-0.46
		c0.1-0.35-0.08-0.71-0.42-0.83l-7.66-2.48c-0.36-0.11-0.74,0.1-0.84,0.46C40.62,6.18,40.81,6.55,41.15,6.67L41.15,6.67z"/>
	<path id="Trazado_7264_1_" style="fill:#F4F7F8;" d="M45.75,33.11l2.38-7.38l-0.11-0.21c-0.03-0.1-0.08-0.2-0.15-0.28l-4.85-9.31
		c-0.23-0.44-0.77-0.61-1.21-0.39l-9.36,4.75c-0.06,0.02-0.12,0.05-0.18,0.09l-0.25,0.13l-2.38,7.39c-0.44,1.37,0.31,2.85,1.68,3.29
		l2.62,0.85c0.38,0.17,0.82,0.18,1.21,0.03c0.36-0.22,0.6-0.58,0.69-0.99l1.29-3.99c0.28-0.89,1.23-1.38,2.12-1.1
		c0.89,0.28,1.38,1.23,1.1,2.12c0,0.01-0.01,0.02-0.01,0.03l-1.29,3.99c-0.34,1.04-0.08,1.56,0.97,1.9l2.43,0.79
		C43.83,35.24,45.31,34.49,45.75,33.11L45.75,33.11z M42.07,28.68c0.59-1.84-0.42-3.82-2.26-4.42c-1.84-0.59-3.82,0.42-4.42,2.26
		c0,0,0,0,0,0l-1.19,3.69l-2.32-0.75c-0.42-0.14-0.65-0.59-0.51-1.01l2.15-6.67l8.31-4.22l4.34,8.33l-2.15,6.66
		c-0.14,0.42-0.59,0.65-1.01,0.52c0,0,0,0,0,0l-2.14-0.7L42.07,28.68z"/>
</g>
</svg>
