<?xml version="1.0" encoding="utf-8"?>
<!-- Generator: Adobe Illustrator 24.1.1, SVG Export Plug-In . SVG Version: 6.00 Build 0)  -->
<svg version="1.0" id="Capa_1" xmlns="http://www.w3.org/2000/svg" xmlns:xlink="http://www.w3.org/1999/xlink" x="0px" y="0px"
	 viewBox="0 0 315.3 71.01" style="enable-background:new 0 0 315.3 71.01;" xml:space="preserve">
<g id="Grupo_104_1_" transform="translate(-78.809 -165.357)">
	<g style="enable-background:new    ;">
		<path style="fill:#26285B;" d="M181.97,196.09h10.12l-0.09,2.78h-13.02v-21.75h2.99V196.09z"/>
		<path style="fill:#26285B;" d="M203.72,198.87l-0.26-2.12l-0.09-0.03c-0.52,0.75-1.23,1.34-2.13,1.77c-0.9,0.42-1.9,0.64-3,0.64
			c-1.64,0-2.94-0.45-3.89-1.36c-0.95-0.91-1.42-2.3-1.42-4.18c0-1.66,0.53-2.95,1.58-3.87s2.6-1.38,4.63-1.38
			c1.39,0,2.72,0.22,3.97,0.67v-1.71c0-1.33-0.31-2.28-0.94-2.84c-0.63-0.56-1.66-0.84-3.09-0.84c-1.76,0-3.37,0.35-4.84,1.04
			l-0.26-2.29c1.64-0.75,3.5-1.13,5.57-1.13c2.26,0,3.87,0.5,4.83,1.51c0.96,1.01,1.44,2.66,1.44,4.96v11.17H203.72z M203.09,193.97
			v-2.99c-0.72-0.43-1.87-0.64-3.45-0.64c-2.75,0-4.12,1.07-4.12,3.22c0,2.2,1.16,3.31,3.48,3.31c1.06,0,2.01-0.3,2.84-0.9
			C202.67,195.37,203.09,194.7,203.09,193.97z"/>
		<path style="fill:#26285B;" d="M216.57,177.12h3.36l6.24,15.37l0.84,2.17h0.09l0.81-2.17l6.24-15.37h3.33v21.75h-2.7v-14.38
			l0.06-2.35l-0.09-0.03l-0.84,2.2l-5.89,14.56h-2.09l-5.86-14.44l-0.84-2.2l-0.06,0.03l0.03,2.35v14.27h-2.64V177.12z"/>
		<path style="fill:#26285B;" d="M254.42,181.59v11.6c0,1.95-0.56,3.44-1.68,4.47c-1.12,1.02-2.8,1.54-5.05,1.54
			c-2.22,0-3.9-0.52-5.02-1.55c-1.12-1.03-1.68-2.52-1.68-4.45v-11.6h2.73v11.54c0,2.36,1.33,3.54,4,3.54
			c2.65,0,3.97-1.18,3.97-3.54v-11.54H254.42z"/>
		<path style="fill:#26285B;" d="M270.95,198.87h-2.73v-11.43c0-2.42-1.3-3.63-3.92-3.63c-0.77,0-1.54,0.17-2.31,0.52
			c-0.76,0.35-1.34,0.82-1.73,1.42v13.11h-2.75v-17.23l1.97-0.15l0.46,1.83h0.09c1.26-1.37,2.93-2.06,5.02-2.06
			c1.86,0,3.3,0.52,4.34,1.57c1.03,1.04,1.55,2.58,1.55,4.61V198.87z"/>
		<path style="fill:#26285B;" d="M276.17,175.73c1.18,0,1.77,0.49,1.77,1.48s-0.59,1.48-1.77,1.48c-0.62,0-1.07-0.11-1.35-0.33
			c-0.28-0.22-0.42-0.6-0.42-1.15C274.4,176.22,274.99,175.73,276.17,175.73z M277.53,198.87h-2.76v-17.2l2.76-0.14V198.87z"/>
		<path style="fill:#26285B;" d="M292.32,182.17l-0.17,2.46c-1.14-0.52-2.31-0.78-3.51-0.78c-1.86,0-3.18,0.48-3.96,1.45
			c-0.78,0.97-1.17,2.57-1.17,4.81c0,2.38,0.42,4.08,1.26,5.12c0.84,1.03,2.11,1.55,3.81,1.55c1.37,0,2.6-0.33,3.68-0.99l0.2,2.26
			c-1.16,0.79-2.65,1.19-4.47,1.19c-2.46,0-4.29-0.74-5.51-2.22c-1.22-1.48-1.83-3.78-1.83-6.92c0-2.96,0.6-5.16,1.8-6.61
			c1.2-1.45,3.07-2.17,5.63-2.17C289.61,181.32,291.02,181.6,292.32,182.17z"/>
		<path style="fill:#26285B;" d="M296.75,175.73c1.18,0,1.77,0.49,1.77,1.48s-0.59,1.48-1.77,1.48c-0.62,0-1.07-0.11-1.35-0.33
			c-0.28-0.22-0.42-0.6-0.42-1.15C294.99,176.22,295.58,175.73,296.75,175.73z M298.12,198.87h-2.75v-17.2l2.75-0.14V198.87z"/>
		<path style="fill:#26285B;" d="M316.53,190.2c0,5.99-2.25,8.99-6.76,8.99c-2.09,0-3.65-0.63-4.7-1.89l-0.06,0.03l0.03,2.35v3.48
			h-2.81v-21.49l1.97-0.14l0.58,1.8c1.31-1.35,3.03-2.03,5.13-2.03c2.22,0,3.88,0.68,4.97,2.03
			C315.99,184.68,316.53,186.97,316.53,190.2z M313.69,190.2c0-2.4-0.36-4.06-1.07-4.99c-0.72-0.93-1.84-1.39-3.36-1.39
			c-1.88,0-3.28,0.68-4.21,2.03v8.87c0.83,1.41,2.18,2.12,4.06,2.12c1.49,0,2.63-0.48,3.41-1.45
			C313.3,194.42,313.69,192.69,313.69,190.2z"/>
		<path style="fill:#26285B;" d="M328.89,198.87l-0.26-2.12l-0.09-0.03c-0.52,0.75-1.23,1.34-2.13,1.77c-0.9,0.42-1.9,0.64-3,0.64
			c-1.64,0-2.94-0.45-3.89-1.36c-0.95-0.91-1.42-2.3-1.42-4.18c0-1.66,0.53-2.95,1.58-3.87s2.6-1.38,4.63-1.38
			c1.39,0,2.72,0.22,3.97,0.67v-1.71c0-1.33-0.31-2.28-0.94-2.84c-0.63-0.56-1.66-0.84-3.09-0.84c-1.76,0-3.37,0.35-4.84,1.04
			l-0.26-2.29c1.64-0.75,3.5-1.13,5.57-1.13c2.26,0,3.87,0.5,4.83,1.51c0.96,1.01,1.44,2.66,1.44,4.96v11.17H328.89z M328.25,193.97
			v-2.99c-0.72-0.43-1.87-0.64-3.45-0.64c-2.75,0-4.12,1.07-4.12,3.22c0,2.2,1.16,3.31,3.48,3.31c1.06,0,2.01-0.3,2.84-0.9
			C327.83,195.37,328.25,194.7,328.25,193.97z"/>
		<path style="fill:#26285B;" d="M337.38,198.87h-2.75v-22.88l2.75-0.17V198.87z"/>
		<path style="fill:#26285B;" d="M343.42,175.73c1.18,0,1.77,0.49,1.77,1.48s-0.59,1.48-1.77,1.48c-0.62,0-1.07-0.11-1.35-0.33
			c-0.28-0.22-0.42-0.6-0.42-1.15C341.65,176.22,342.24,175.73,343.42,175.73z M344.78,198.87h-2.76v-17.2l2.76-0.14V198.87z"/>
		<path style="fill:#26285B;" d="M362.21,198.87h-2.12l-0.35-1.8l-0.09-0.03c-1.1,1.45-2.8,2.17-5.1,2.17
			c-2.32,0-4.01-0.72-5.06-2.17s-1.58-3.73-1.58-6.84c0-5.96,2.22-8.93,6.67-8.93c2.01,0,3.63,0.65,4.87,1.94l0.06-0.03l-0.06-2.32
			v-4.87l2.75-0.17V198.87z M359.45,194.81v-9.02c-0.37-0.6-0.92-1.08-1.65-1.44c-0.74-0.36-1.56-0.54-2.46-0.54
			c-1.68,0-2.87,0.49-3.55,1.48c-0.69,0.99-1.03,2.66-1.03,5.02c0,2.44,0.33,4.15,1,5.13s1.85,1.48,3.55,1.48
			c1.08,0,1.97-0.21,2.65-0.64C358.65,195.86,359.14,195.37,359.45,194.81z"/>
		<path style="fill:#26285B;" d="M375.61,198.87l-0.26-2.12l-0.09-0.03c-0.52,0.75-1.23,1.34-2.13,1.77s-1.9,0.64-3,0.64
			c-1.64,0-2.94-0.45-3.89-1.36c-0.95-0.91-1.42-2.3-1.42-4.18c0-1.66,0.53-2.95,1.58-3.87s2.6-1.38,4.63-1.38
			c1.39,0,2.72,0.22,3.97,0.67v-1.71c0-1.33-0.31-2.28-0.94-2.84c-0.63-0.56-1.66-0.84-3.09-0.84c-1.76,0-3.37,0.35-4.84,1.04
			l-0.26-2.29c1.64-0.75,3.5-1.13,5.57-1.13c2.26,0,3.87,0.5,4.83,1.51c0.96,1.01,1.44,2.66,1.44,4.96v11.17H375.61z M374.97,193.97
			v-2.99c-0.72-0.43-1.87-0.64-3.45-0.64c-2.75,0-4.12,1.07-4.12,3.22c0,2.2,1.16,3.31,3.48,3.31c1.06,0,2.01-0.3,2.84-0.9
			C374.55,195.37,374.97,194.7,374.97,193.97z"/>
		<path style="fill:#26285B;" d="M394.11,198.87h-2.12l-0.35-1.8l-0.09-0.03c-1.1,1.45-2.8,2.17-5.1,2.17
			c-2.32,0-4.01-0.72-5.06-2.17s-1.58-3.73-1.58-6.84c0-5.96,2.22-8.93,6.67-8.93c2.01,0,3.63,0.65,4.87,1.94l0.06-0.03l-0.06-2.32
			v-4.87l2.75-0.17V198.87z M391.35,194.81v-9.02c-0.37-0.6-0.92-1.08-1.65-1.44c-0.73-0.36-1.56-0.54-2.46-0.54
			c-1.68,0-2.87,0.49-3.55,1.48c-0.69,0.99-1.03,2.66-1.03,5.02c0,2.44,0.33,4.15,1,5.13s1.85,1.48,3.55,1.48
			c1.08,0,1.97-0.21,2.65-0.64C390.54,195.86,391.04,195.37,391.35,194.81z"/>
	</g>
	<g style="enable-background:new    ;">
		<path style="fill:#26285B;" d="M185.63,230.22c-2.82,0-4.87-0.76-6.13-2.28c-1.27-1.52-1.9-3.91-1.9-7.18
			c0-2.74,0.6-4.84,1.8-6.29c1.2-1.45,2.98-2.17,5.34-2.17c2.15,0,3.82,0.66,5.02,1.97c1.2,1.31,1.8,3.32,1.8,6
			c0,0.39-0.02,0.83-0.06,1.33h-11.08c0.08,2.24,0.55,3.82,1.41,4.74c0.86,0.92,2.24,1.38,4.13,1.38c1.62,0,3.19-0.37,4.7-1.1
			l0.32,2.32C189.4,229.79,187.62,230.22,185.63,230.22z M180.35,219.72h8.67c-0.06-3.36-1.48-5.05-4.26-5.05
			c-1.45,0-2.52,0.41-3.22,1.23C180.84,216.73,180.45,218,180.35,219.72z"/>
		<path style="fill:#26285B;" d="M207.32,229.87h-2.73v-11.43c0-2.42-1.3-3.63-3.92-3.63c-0.77,0-1.54,0.17-2.31,0.52
			c-0.76,0.35-1.34,0.82-1.73,1.42v13.11h-2.75v-17.23l1.97-0.15l0.46,1.83h0.09c1.26-1.37,2.93-2.06,5.02-2.06
			c1.86,0,3.3,0.52,4.34,1.57c1.03,1.04,1.55,2.58,1.55,4.61V229.87z"/>
		<path style="fill:#26285B;" d="M225.65,214.73h-4.26v10.61c0,1.68,0.84,2.52,2.52,2.52c0.6,0,1.08-0.08,1.45-0.23l0.17,2.09
			c-0.58,0.29-1.38,0.43-2.41,0.43c-1.47,0-2.59-0.4-3.35-1.2c-0.76-0.8-1.15-1.98-1.15-3.52v-10.7h-2.41v-2.15h2.49l0.52-4.29
			l2.15-0.23v4.52h4.26V214.73z"/>
		<path style="fill:#26285B;" d="M240.76,212.59v11.6c0,1.95-0.56,3.44-1.68,4.47c-1.12,1.02-2.8,1.54-5.05,1.54
			c-2.22,0-3.9-0.52-5.02-1.55c-1.12-1.03-1.68-2.52-1.68-4.45v-11.6h2.73v11.54c0,2.36,1.33,3.54,4,3.54
			c2.65,0,3.97-1.18,3.97-3.54v-11.54H240.76z"/>
		<path style="fill:#26285B;" d="M261.78,213.17l-0.17,2.46c-1.14-0.52-2.31-0.78-3.51-0.78c-1.86,0-3.18,0.48-3.96,1.45
			c-0.78,0.97-1.17,2.57-1.17,4.81c0,2.38,0.42,4.08,1.26,5.12c0.84,1.03,2.11,1.55,3.81,1.55c1.37,0,2.6-0.33,3.68-0.99l0.2,2.26
			c-1.16,0.79-2.65,1.19-4.47,1.19c-2.46,0-4.29-0.74-5.51-2.22c-1.22-1.48-1.83-3.78-1.83-6.92c0-2.96,0.6-5.16,1.8-6.61
			c1.2-1.45,3.07-2.17,5.63-2.17C259.07,212.32,260.49,212.6,261.78,213.17z"/>
		<path style="fill:#26285B;" d="M274.08,229.87l-0.26-2.12l-0.09-0.03c-0.52,0.75-1.23,1.34-2.13,1.77c-0.9,0.42-1.9,0.64-3,0.64
			c-1.64,0-2.94-0.45-3.89-1.36c-0.95-0.91-1.42-2.3-1.42-4.18c0-1.66,0.53-2.95,1.58-3.87s2.6-1.38,4.63-1.38
			c1.39,0,2.72,0.22,3.97,0.67v-1.71c0-1.33-0.31-2.28-0.94-2.84c-0.63-0.56-1.66-0.84-3.09-0.84c-1.76,0-3.37,0.35-4.84,1.04
			l-0.26-2.29c1.64-0.75,3.5-1.13,5.57-1.13c2.26,0,3.87,0.5,4.83,1.51c0.96,1.01,1.44,2.66,1.44,4.96v11.17H274.08z M273.44,224.97
			v-2.99c-0.72-0.43-1.87-0.64-3.45-0.64c-2.75,0-4.12,1.07-4.12,3.22c0,2.2,1.16,3.31,3.48,3.31c1.06,0,2.01-0.3,2.84-0.9
			C273.02,226.37,273.44,225.7,273.44,224.97z"/>
		<path style="fill:#26285B;" d="M289.88,224.79c0,1.7-0.5,3.03-1.51,3.99c-1.01,0.96-2.53,1.44-4.58,1.44
			c-2.19,0-3.95-0.48-5.31-1.45l0.35-2.38c1.33,1.01,2.98,1.51,4.93,1.51c1.2,0,2.09-0.26,2.68-0.77c0.59-0.51,0.88-1.2,0.88-2.07
			c0-0.71-0.3-1.29-0.91-1.74c-0.61-0.44-1.35-0.8-2.22-1.07s-1.74-0.57-2.6-0.9c-0.86-0.33-1.6-0.84-2.2-1.54
			c-0.61-0.7-0.91-1.58-0.91-2.67c0-1.49,0.52-2.67,1.55-3.54c1.03-0.87,2.53-1.31,4.48-1.31c1.68,0,3.24,0.33,4.67,0.99l-0.23,2.32
			c-1.47-0.62-2.97-0.93-4.49-0.93c-1.02,0-1.84,0.21-2.45,0.62s-0.91,0.98-0.91,1.7c0,0.68,0.3,1.22,0.9,1.62s1.33,0.74,2.2,1
			c0.87,0.26,1.73,0.55,2.6,0.87c0.86,0.32,1.59,0.84,2.19,1.55C289.58,222.76,289.88,223.67,289.88,224.79z"/>
		<path style="fill:#26285B;" d="M302.09,229.87l-0.26-2.12l-0.09-0.03c-0.52,0.75-1.23,1.34-2.13,1.77c-0.9,0.42-1.9,0.64-3,0.64
			c-1.64,0-2.94-0.45-3.89-1.36c-0.95-0.91-1.42-2.3-1.42-4.18c0-1.66,0.53-2.95,1.58-3.87s2.6-1.38,4.63-1.38
			c1.39,0,2.72,0.22,3.97,0.67v-1.71c0-1.33-0.31-2.28-0.94-2.84c-0.63-0.56-1.66-0.84-3.09-0.84c-1.76,0-3.37,0.35-4.84,1.04
			l-0.26-2.29c1.64-0.75,3.5-1.13,5.57-1.13c2.26,0,3.87,0.5,4.83,1.51c0.96,1.01,1.44,2.66,1.44,4.96v11.17H302.09z M301.45,224.97
			v-2.99c-0.72-0.43-1.87-0.64-3.45-0.64c-2.75,0-4.12,1.07-4.12,3.22c0,2.2,1.16,3.31,3.48,3.31c1.06,0,2.01-0.3,2.84-0.9
			C301.04,226.37,301.45,225.7,301.45,224.97z"/>
	</g>
	<g id="Grupo_1035" transform="translate(-244.585 104.007)">
		<path id="Trazado_7262" style="fill:#51527B;" d="M400.98,92.11c-0.86-1.59-3.16-2.93-6.85-4l4.1-12.7
			c0.85-2.65-0.6-5.5-3.25-6.36l-23-7.45c-2.65-0.86-5.5,0.6-6.35,3.25c0,0,0,0.01,0,0.01l-2.43,7.52c-0.1-0.07-0.19-0.14-0.29-0.21
			c-0.8-0.57-1.8-0.76-2.75-0.51c-1.74,0.49-2.63,2.92-3.66,5.73c-0.43,1.34-0.99,2.63-1.68,3.85c-3.09,4.25-6.5,8.27-10.19,12.01
			c-3.89,3.96-4.82,5.52-7.1,11.97c-1.2,3.4-6.13,7.31-13.16,10.46c-0.15,0.07-0.25,0.11-0.28,0.13c-0.62,0.31-0.86,1.06-0.55,1.68
			c0.21,0.42,0.64,0.68,1.11,0.68c0.2,0,0.39-0.05,0.56-0.14l0.18-0.08c10.63-4.75,13.65-9.5,14.5-11.9
			c2.14-6.06,2.93-7.4,6.53-11.05c3.79-3.85,7.29-7.98,10.47-12.35c0.82-1.39,1.47-2.86,1.96-4.4c0.5-1.36,1.42-3.89,2.01-4.19
			c0.25-0.03,0.5,0.04,0.69,0.19c0.4,0.29,0.75,0.66,1.01,1.08c0.05,0.14,0.13,0.27,0.23,0.39c0.32,0.58,0.54,1.21,0.64,1.87
			c0.26,1.97-0.8,7.03-3.11,10.79c-2.41,3.93-5.05,8.86-5.07,8.92l-0.05,0.1l-1.56,4.83c-0.07,0.1-0.12,0.21-0.16,0.33l-3.32,10.28
			c-0.85,2.65,0.6,5.5,3.25,6.36l12.92,4.19c-2.17,1.4-4.5,2.54-6.95,3.38c-5.55,1.36-8.01,1.57-9.09,1.51
			c-1.99-0.11-6.48,0.62-7.56,2.09c-0.4,0.56-0.28,1.34,0.28,1.74c0.54,0.39,1.28,0.29,1.7-0.22c1.7-0.79,3.57-1.17,5.45-1.12
			c1.85,0.1,5.06-0.41,9.82-1.57c3.16-0.77,8.48-4.16,9.46-4.8l6.97,2.26c2.65,0.86,5.5-0.6,6.35-3.25c0,0,0-0.01,0-0.01l1.33-4.12
			c1.04,0.3,2.15,0.24,3.15-0.17l4.05-1.65c2.49-1.01,3.68-3.85,2.67-6.34c-0.29-0.71-0.74-1.34-1.32-1.84
			c2.43-1.14,3.49-4.03,2.35-6.47c-0.84-1.8-2.7-2.91-4.68-2.8l0.21-0.67c0.3,0.02,0.73,0.04,1.25,0.04c2.78,0,8.14-0.57,9.48-4.85
			C401.49,93.73,401.4,92.85,400.98,92.11z M380.28,122.61c-0.41,1.29-1.79,2-3.08,1.59c0,0,0,0-0.01,0l-23-7.45
			c-1.29-0.42-2-1.81-1.58-3.1l3.32-10.28c0.04-0.11,0.06-0.22,0.06-0.34l1.5-4.64c0.38-0.71,2.76-5.13,4.94-8.68
			c2.5-4.08,3.81-9.71,3.46-12.42c-0.12-0.85-0.38-1.67-0.76-2.43l2.96-9.18c0.41-1.29,1.8-2,3.09-1.59c0,0,0,0,0,0l23,7.45
			c1.29,0.42,2,1.81,1.58,3.1l-8.42,26.09c-0.03,0.08-0.04,0.16-0.05,0.24l-0.87,0.35c-2.49,1.01-3.68,3.85-2.67,6.34
			c0.29,0.71,0.74,1.34,1.32,1.84l-1.49,0.61c-2.49,1.01-3.68,3.84-2.67,6.33c0.22,0.53,0.52,1.02,0.91,1.44L380.28,122.61z
			 M390.34,115.16l-4.05,1.65c-1.21,0.49-2.58-0.09-3.07-1.3c0,0,0,0,0,0c-0.49-1.21,0.09-2.59,1.3-3.09l4.05-1.65
			c1.21-0.49,2.58,0.09,3.07,1.3c0,0,0,0,0,0C392.13,113.28,391.55,114.66,390.34,115.16L390.34,115.16z M391.5,102.69
			c0.58,0.24,1.04,0.71,1.27,1.29c0.49,1.21-0.09,2.59-1.3,3.09l-2.33,0.95c-1.21,0.49-2.58-0.09-3.07-1.3c0,0,0,0,0,0
			c-0.49-1.21,0.09-2.59,1.3-3.09l2.33-0.95C390.27,102.45,390.92,102.45,391.5,102.69L391.5,102.69z M398.85,93.8
			c-0.9,2.89-5.52,3.13-7.55,3.09l2.06-6.39l0.02,0.01c4.27,1.22,5.21,2.45,5.4,2.8C398.88,93.45,398.91,93.63,398.85,93.8
			L398.85,93.8z"/>
		<path id="Trazado_7263" style="fill:#51527B;" d="M376.51,69.97l9.89,3.21c0.46,0.14,0.95-0.13,1.09-0.59
			c0.13-0.45-0.11-0.92-0.55-1.07l-9.89-3.21c-0.46-0.14-0.95,0.13-1.09,0.59C375.83,69.34,376.07,69.81,376.51,69.97L376.51,69.97z
			"/>
		<path id="Trazado_7264" style="fill:#51527B;" d="M382.45,104.1l3.07-9.53l-0.14-0.27c-0.04-0.13-0.11-0.25-0.19-0.36l-6.26-12.02
			c-0.3-0.57-0.99-0.79-1.57-0.5l-12.08,6.13c-0.08,0.03-0.16,0.07-0.23,0.12l-0.33,0.17l-3.08,9.54c-0.57,1.77,0.4,3.67,2.17,4.25
			l3.38,1.1c0.5,0.21,1.06,0.23,1.56,0.03c0.46-0.29,0.78-0.75,0.89-1.28l1.66-5.15c0.36-1.15,1.59-1.79,2.74-1.42
			c1.15,0.36,1.79,1.59,1.42,2.74c0,0.01-0.01,0.02-0.01,0.03l-1.66,5.15c-0.43,1.35-0.1,2.01,1.25,2.45l3.14,1.02
			C379.98,106.85,381.88,105.88,382.45,104.1L382.45,104.1z M377.7,98.39c0.77-2.38-0.54-4.93-2.91-5.71
			c-2.38-0.77-4.93,0.54-5.7,2.92c0,0,0,0,0,0l-1.54,4.76l-3-0.97c-0.54-0.18-0.84-0.76-0.66-1.3l2.78-8.61l10.73-5.45l5.6,10.76
			l-2.77,8.59c-0.17,0.54-0.76,0.84-1.3,0.67c0,0,0,0,0,0l-2.76-0.9L377.7,98.39z"/>
	</g>
</g>
</svg>
