<?xml version="1.0" encoding="utf-8"?>
<!-- Generator: Adobe Illustrator 24.1.1, SVG Export Plug-In . SVG Version: 6.00 Build 0)  -->
<svg version="1.1" id="Capa_1" xmlns="http://www.w3.org/2000/svg" xmlns:xlink="http://www.w3.org/1999/xlink" x="0px" y="0px"
	 viewBox="0 0 165 74.61" style="enable-background:new 0 0 165 74.61;" xml:space="preserve">
<style type="text/css">
	.st0{fill:#599DDF;}
</style>
<g>
	<path class="st0" d="M135.06,16.79c-4.01-2.51-8.2-4.75-12.54-6.68c-6.55-2.9-13.39-5.11-20.39-6.72
		C97.1,2.24,91.98,1.38,86.86,0.84C74.6-0.48,62.25-0.18,50.08,1.28C43.99,2,37.94,3.04,31.91,4.37c-3.01,0.65-6.02,1.39-9.04,2.22
		c-1.52,0.42-3.04,0.87-4.57,1.33c-1.57,0.49-2.97,0.93-4.84,1.63l13.62,31.11c0.71-0.47,1.95-1.12,3.01-1.66
		c1.11-0.59,2.27-1.17,3.42-1.71c2.32-1.1,4.71-2.17,7.13-3.15c4.83-2.03,9.81-3.8,14.82-5.35c10.05-3.08,20.41-5.17,30.85-5.91
		c7.18-0.51,14.41-0.35,21.53,0.62c3.22,0.43,6.43,1.01,9.59,1.8c1.92,0.45,3.81,1.01,5.68,1.61c8.16,2.61,15.98,6.46,23.18,11.57
		l6.3-7.66C147.37,25.52,141.46,20.78,135.06,16.79"/>
	<path d="M7.42,74.61c-2.7,0-5.33-0.65-7.42-1.75l0.8-5.48c2.11,1.08,4.29,1.71,6.55,1.71c2.08,0,2.9-0.63,2.9-1.81
		c0-2.91-10.23-1.68-10.23-9.69c0-4.19,2.66-7.63,8.9-7.63c2.33,0,4.86,0.43,6.77,1.21l-0.76,5.36c-2.01-0.59-3.99-0.91-5.64-0.91
		c-2.52,0-3.01,0.69-3.01,1.61c0,2.94,10.17,1.62,10.17,9.65C16.44,71.63,13.03,74.61,7.42,74.61"/>
	<path d="M28.86,72.58c-1.22,1.2-2.9,1.92-4.93,1.92c-3.7,0-5.94-2.16-5.94-6.52c0-3.56,2.53-6.1,6.78-6.1
		c1.27,0,2.29,0.16,3.19,0.39v-0.69c0-1.41-0.8-2.21-3.13-2.21c-2.13,0-3.38,0.3-5.2,0.96l-0.45-4.61c1.97-0.86,4.22-1.27,6.77-1.27
		c5.98,0,7.94,2.63,7.94,7.98v11.75H29.3L28.86,72.58z M27.96,66.15c-0.42-0.14-1.1-0.3-2.04-0.3c-1.59,0-2.34,0.66-2.34,2.08
		c0,1.39,0.77,1.95,2,1.95c1.27,0,2.38-0.72,2.38-1.77V66.15z"/>
	<path d="M47.55,74.17V62.05c0-1.78-0.78-2.46-2.3-2.46c-0.99,0-1.95,0.41-2.48,1.1v13.49H36.8v-19.3l4.29-0.25l0.83,1.52
		c1.41-1.13,3.18-1.73,5.05-1.73c4,0,6.56,2.73,6.56,7.64v12.12H47.55z"/>
	<polygon points="71.38,50.39 76.01,62.53 76.88,64.93 76.96,64.93 77.8,62.56 82.49,50.39 89.57,50.39 89.57,74.17 83.64,74.17 
		83.64,64.14 83.7,61.57 83.61,61.54 82.74,63.99 78.93,74.17 74.66,74.17 70.85,63.92 70.01,61.49 69.95,61.51 69.98,64.07 
		69.98,74.17 64.27,74.17 64.27,50.39 	"/>
	<path d="M103.06,72.58c-1.22,1.2-2.9,1.92-4.93,1.92c-3.7,0-5.94-2.16-5.94-6.52c0-3.56,2.51-6.1,6.78-6.1
		c1.27,0,2.29,0.16,3.19,0.39v-0.69c0-1.41-0.8-2.21-3.13-2.21c-2.14,0-3.4,0.3-5.18,0.96l-0.47-4.61c1.97-0.86,4.22-1.27,6.78-1.27
		c5.98,0,7.94,2.63,7.94,7.98v11.75h-4.6L103.06,72.58z M102.16,66.15c-0.43-0.14-1.12-0.3-2.05-0.3c-1.58,0-2.32,0.66-2.32,2.08
		c0,1.39,0.78,1.95,1.98,1.95c1.27,0,2.39-0.72,2.39-1.77V66.15z"/>
	<path d="M111,74.17V54.91l4.75-0.22l0.53,2.8h0.09c1.18-2.09,2.92-3.05,4.89-3.05c0.88,0,1.62,0.13,2.12,0.3l-0.34,5.79
		c-0.62-0.22-1.4-0.33-2.2-0.33c-2.3,0-3.85,1.54-3.85,4.28v9.69H111z"/>
	<path d="M132.24,59.15v8.94c0,1.23,0.58,1.75,1.95,1.75c0.46,0,1.12-0.08,1.45-0.22l0.32,4.26c-0.69,0.34-2.11,0.6-3.6,0.6
		c-4.16,0-6.13-2.44-6.13-6.27v-9.07h-1.79v-4.41h2.11l0.97-4.11l4.72-0.42v4.53h3.93v4.41H132.24z"/>
	<path d="M138.64,74.17V54.95l6.1-0.29v19.51H138.64z M147.23,48.83l-3.85,4.63h-4.44l1.56-4.63H147.23z"/>
	<path d="M159.02,74.17V62.05c0-1.78-0.78-2.46-2.3-2.46c-0.99,0-1.95,0.41-2.48,1.1v13.49h-5.97v-19.3l4.3-0.25l0.81,1.52
		c1.42-1.13,3.19-1.73,5.05-1.73c4,0,6.57,2.73,6.57,7.64v12.12H159.02z"/>
</g>
</svg>
