<?xml version="1.0" encoding="utf-8"?>
<!-- Generator: Adobe Illustrator 24.1.1, SVG Export Plug-In . SVG Version: 6.00 Build 0)  -->
<svg version="1.1" id="Capa_1" xmlns="http://www.w3.org/2000/svg" xmlns:xlink="http://www.w3.org/1999/xlink" x="0px" y="0px"
	 viewBox="0 0 39.6 13.3" style="enable-background:new 0 0 39.6 13.3;" xml:space="preserve">
<style type="text/css">
	.st0{fill:#2B2C5A;}
</style>
<g>
	<path class="st0" d="M19.3,13.3c-1.5,0-2.9-0.3-4.1-0.9l0.4-3c1.2,0.6,2.4,0.9,3.6,0.9c1.1,0,1.6-0.3,1.6-1c0-1.6-5.6-0.9-5.6-5.2
		c0-2.3,1.5-4.1,4.9-4.1c1.3,0,2.7,0.2,3.7,0.6l-0.4,2.9C22.4,3.2,21.3,3,20.4,3c-1.4,0-1.7,0.4-1.7,0.9c0,1.6,5.6,0.9,5.6,5.2
		C24.3,11.7,22.4,13.3,19.3,13.3"/>
	<polygon class="st0" points="29.6,0.2 32.1,6.8 32.6,8.1 32.6,8.1 33.1,6.8 35.7,0.2 39.6,0.2 39.6,13.1 36.3,13.1 36.3,7.7 
		36.4,6.3 36.3,6.3 35.8,7.6 33.7,13.1 31.4,13.1 29.3,7.5 28.8,6.2 28.8,6.2 28.8,7.6 28.8,13.1 25.6,13.1 25.6,0.2 	"/>
	<path class="st0" d="M0,12.7l0.8-0.3c0.5-0.2,0.5-0.3,0.5-1.2V6.2c0-0.7,0-0.8-0.6-0.9L0.1,5V4.7l2.4-0.4c0.2,0.6,0.2,0.8,0.4,0.8
		s0.6-0.3,1-0.5c0.4-0.2,0.8-0.3,1.3-0.3c1.7,0,2.1,0.9,2.3,0.9c0.3,0,1.4-0.7,1.7-0.8c0.3-0.1,0.7-0.1,1.1-0.1
		c2.1,0,2.5,1.3,2.5,3.2v3.8c0,1,0,1,0.5,1.2l0.8,0.3v0.4h-4v-0.4l0.8-0.3c0.5-0.2,0.6-0.3,0.6-1.2V7.7c0-1.8-0.6-2.6-1.9-2.6
		c-1.3,0-1.8,0.6-1.8,2.1v4c0,1,0,1,0.6,1.2l0.8,0.3v0.4h-4v-0.4l0.8-0.3c0.5-0.2,0.6-0.2,0.6-1.2v-4c0-1-0.3-2.2-1.8-2.2
		C3.3,5.1,2.7,5.8,2.7,7v4.3c0,0.9,0,1,0.5,1.2L4,12.7v0.4H0V12.7z"/>
</g>
</svg>
