<?xml version="1.0" encoding="utf-8"?>
<!-- Generator: Adobe Illustrator 24.1.1, SVG Export Plug-In . SVG Version: 6.00 Build 0)  -->
<svg version="1.0" id="Layer_1" xmlns="http://www.w3.org/2000/svg" xmlns:xlink="http://www.w3.org/1999/xlink" x="0px" y="0px"
	 viewBox="0 0 189.02 142.5" style="enable-background:new 0 0 189.02 142.5;" xml:space="preserve">
<g>
	<path style="fill:#282859;" d="M44.66,29.38H26.2h-2.94H4.79c-2.74,0-4.93,2.3-4.79,5.03l2.5,49.99c0.1,2.1,1.84,3.74,3.93,3.74
		h2.13l2.94,54.36h11.75V92.55h2.94v49.95h11.75l2.94-54.36h2.13c2.1,0,3.83-1.65,3.93-3.74l2.5-49.99
		C49.59,31.68,47.4,29.38,44.66,29.38z"/>
	<circle style="fill:#282859;" cx="24.73" cy="12.49" r="12.49"/>
</g>
<g>
	<path style="fill:#282859;" d="M184.22,29.38h-18.46h-2.94h-18.46c-2.74,0-4.93,2.3-4.79,5.03l2.5,49.99
		c0.1,2.1,1.84,3.74,3.93,3.74h2.13l2.94,54.36h11.75V92.55h2.94v49.95h11.75l2.94-54.36h2.13c2.1,0,3.83-1.65,3.93-3.74l2.5-49.99
		C189.15,31.68,186.97,29.38,184.22,29.38z"/>
	<circle style="fill:#282859;" cx="164.29" cy="12.49" r="12.49"/>
</g>
<path style="fill:#282859;" d="M125.32,72.76l-16.75-12.18c-1.17-0.85-2.81-0.01-2.81,1.43v6.3H94.51H83.26v-6.3
	c0-1.45-1.64-2.28-2.81-1.43L63.7,72.76c-0.97,0.71-0.97,2.16,0,2.86L80.45,87.8c1.17,0.85,2.81,0.01,2.81-1.43v-6.3h11.25h11.25
	v6.3c0,1.45,1.64,2.28,2.81,1.43l16.75-12.18C126.29,74.91,126.29,73.46,125.32,72.76z"/>
</svg>
