<?xml version="1.0" encoding="utf-8"?>
<!-- Generator: Adobe Illustrator 24.1.1, SVG Export Plug-In . SVG Version: 6.00 Build 0)  -->
<svg version="1.0" id="Layer_1" xmlns="http://www.w3.org/2000/svg" xmlns:xlink="http://www.w3.org/1999/xlink" x="0px" y="0px"
	 viewBox="0 0 111.11 134.66" style="enable-background:new 0 0 111.11 134.66;" xml:space="preserve">
<g>
	<polygon style="fill:none;" points="87.78,73.96 104.97,77.94 104.97,57.97 87.78,57.43 	"/>
	<polygon style="fill:none;" points="104.97,27.69 104.97,8.04 87.78,16.63 87.78,32.56 	"/>
	<polygon style="fill:none;" points="23.33,77.75 6.14,82.62 6.14,103.11 23.33,94.66 23.33,84.69 23.33,84.69 	"/>
	<polygon style="fill:none;" points="87.78,94.66 104.97,103.11 104.97,81.7 87.78,78.03 	"/>
	<polygon style="fill:none;" points="81.64,38.37 81.64,17.51 29.46,17.62 29.46,28.74 23.33,27.74 23.33,16.45 6.14,8 6.14,28.98 
		23.32,32.68 23.3,36.44 6.14,32.74 6.14,53.71 23.33,53.71 23.33,27.74 29.46,28.74 29.46,83.62 29.46,83.62 29.46,93.5 
		81.32,93.5 81.64,93.5 81.64,41.84 	"/>
	<polygon style="fill:none;" points="87.78,36.98 87.78,40.26 87.78,53.17 104.97,53.71 104.97,32.04 87.78,36.39 	"/>
	<path style="fill:none;" d="M87.78,76.63L87.78,76.63C87.78,76.63,87.78,76.63,87.78,76.63z"/>
	<polygon style="fill:none;" points="23.33,57.4 6.14,57.4 6.14,78.79 23.33,73.92 	"/>
	<polygon style="fill:#282859;" points="87.78,57.43 104.97,57.97 104.97,53.71 87.78,53.17 	"/>
	<polygon style="fill:#282859;" points="87.78,76.63 87.78,76.63 87.78,78.03 104.97,81.7 104.97,77.94 87.78,73.96 	"/>
	<polygon style="fill:#282859;" points="87.78,36.39 104.97,32.04 104.97,27.69 87.78,32.56 	"/>
	<path style="fill:#282859;" d="M109.65,0.46c-0.9-0.56-2.04-0.61-2.99-0.13L84.45,11.43l0.63,0c0,0,1.41,3.6,2.06,5.25l0.64-0.05v0
		l17.19-8.59v19.65v4.35v21.68v4.26v19.97v3.76v21.41l-17.19-8.45v1.91l-1.04-0.52l0.72,3.59H84l0,0l22.69,11.15
		c0.43,0.21,0.89,0.32,1.35,0.32c0.56,0,1.13-0.16,1.62-0.46c0.9-0.56,1.45-1.55,1.45-2.61V3.07
		C111.11,2.01,110.56,1.02,109.65,0.46z"/>
	<path style="fill:#282859;" d="M87.46,17.49l-5.82,0.01v20.86c2.21-0.38,4.27-0.86,6.14-1.4v-0.59v-3.83V16.63v0l-0.64,0.05
		C87.34,17.17,87.46,17.49,87.46,17.49z"/>
	<path style="fill:#282859;" d="M87.78,76.63L87.78,76.63v-2.67V57.43v-4.26V40.26v-3.28c-1.87,0.54-3.93,1.02-6.14,1.4v3.47V93.5
		h4.59l0.51,2.55l1.04,0.52v-1.91V78.03V76.63z"/>
	<path style="fill:#282859;" d="M23.33,96.57v-1.91l-17.19,8.45V82.62v-3.83V57.4v-3.68V32.74v-3.77V8l17.19,8.45v-0.18
		c0,0,2.26-4.8,3.07-4.8l0.71,0L4.42,0.31C3.47-0.15,2.35-0.1,1.45,0.46C0.55,1.02,0,2.01,0,3.07v104.97c0,1.06,0.55,2.05,1.45,2.61
		c0.49,0.31,1.06,0.46,1.62,0.46c0.46,0,0.93-0.1,1.35-0.32l22.69-11.15h-0.71C24.7,99.64,23.33,98.27,23.33,96.57z"/>
	<path style="fill:#282859;" d="M23.33,16.27v0.18v11.29l6.14,1V17.62l52.18-0.11l5.82-0.01c0,0-0.13-0.33-0.32-0.82
		c-0.65-1.65-2.06-5.25-2.06-5.25l-0.63,0l-57.34,0.04l-0.71,0C25.58,11.47,23.33,16.27,23.33,16.27z"/>
	<path style="fill:#282859;" d="M86.75,96.05l-0.51-2.55h-4.59h-0.32H29.46v-9.88c-1.75,0.39-4.33,0.86-6.14,1.07v9.97v1.91
		c0,1.7,1.37,3.07,3.07,3.07h0.71H84h3.47L86.75,96.05z"/>
	<path style="fill:#282859;" d="M29.46,28.74l-6.14-1v25.97h0v3.68h0v16.52l0.11-0.03l-0.01,3.83l-0.09,0.03v6.94v0
		c1.81-0.22,4.39-0.68,6.14-1.07v0V28.74z"/>
	<polygon style="fill:#282859;" points="23.42,77.72 23.43,73.89 23.33,73.92 6.14,78.79 6.14,82.62 23.33,77.75 	"/>
	<polygon style="fill:#282859;" points="23.32,32.68 6.14,28.98 6.14,32.74 23.3,36.44 	"/>
	<polygon style="fill:#282859;" points="23.33,57.4 23.33,53.71 23.33,53.71 6.14,53.71 6.14,57.4 23.33,57.4 	"/>
	<path style="fill:#282859;" d="M66.8,109.6c-0.03-0.5-0.44-0.89-0.94-0.89h-4.64c-0.52,0-0.95,0.41-0.95,0.93
		c-0.13,14.64,10.5,21.97,21.76,21.39v-6.52C73.14,124.28,67.58,120.87,66.8,109.6z"/>
	<path style="fill:#282859;" d="M94.15,127.04l-10.98-6.19c-0.51-0.29-1.14,0.08-1.14,0.67v2.99v6.52v2.87
		c0,0.58,0.63,0.95,1.14,0.67l10.98-6.19C94.67,128.08,94.67,127.33,94.15,127.04z"/>
	<path style="fill:#282859;" d="M49.33,108.71h-4.64c-0.5,0-0.91,0.39-0.94,0.89c-0.78,11.27-6.34,14.68-15.23,14.91v6.52
		c11.26,0.58,21.89-6.75,21.76-21.39C50.28,109.12,49.85,108.71,49.33,108.71z"/>
	<path style="fill:#282859;" d="M28.52,121.52c0-0.58-0.63-0.95-1.14-0.67l-10.98,6.19c-0.52,0.29-0.52,1.04,0,1.33l10.98,6.19
		c0.51,0.29,1.14-0.08,1.14-0.67v-2.87v-6.52V121.52z"/>
</g>
</svg>
