<?xml version="1.0" encoding="utf-8"?>
<!-- Generator: Adobe Illustrator 24.1.1, SVG Export Plug-In . SVG Version: 6.00 Build 0)  -->
<svg version="1.0" id="Layer_1" xmlns="http://www.w3.org/2000/svg" xmlns:xlink="http://www.w3.org/1999/xlink" x="0px" y="0px"
	 viewBox="0 0 139.6 151.63" style="enable-background:new 0 0 139.6 151.63;" xml:space="preserve">
<g>
	<g>
		<path style="fill:#282859;" d="M64.11,151.63c-1.38,0-2.65-0.92-3.02-2.32L50.9,113.43H16.73c-0.13,0-0.27,0-0.4,0
			c-6.86,0-12.43-3.81-14.95-10.26c-3.05-7.78-0.92-16.97,5.17-22.35l22.18-19.9c1.63-1.55,4.57-2.8,7.5-3.94V29.65
			c0-12.9,11.55-28.49,25.9-28.49c1.72,0,3.12,1.39,3.13,3.12v0.03c3.84-2.67,8.68-4.17,13.52-4.02c1.68,0.05,3.01,1.42,3.03,3.09
			l0.02,1.59c3.79-2.4,8.32-4.07,11.29-4.86c0.94-0.25,1.94-0.05,2.71,0.54c0.77,0.59,1.23,1.5,1.23,2.47l0.26,52.91
			c4.53-2.37,9.74-2.99,14.79-1.64c7.08,1.9,12.61,7.31,14.44,14.12l12.96,48.36c0.45,1.67-0.54,3.38-2.21,3.83
			c-1.67,0.45-3.38-0.54-3.83-2.21L120.5,70.12c-1.25-4.66-5.09-8.38-10.02-9.7c-3.31-0.89-6.65-0.58-9.64,0.81
			c2.66,2,4.37,5.18,4.37,8.75c0,4.82-3.12,8.92-7.45,10.39c5.11,2.91,8.95,6.26,11.06,8.3c0.08,0.08,0.15,0.15,0.22,0.24
			c6.34,7.57,9.47,14.83,9.56,22.21c0,0.04,0,0.09,0,0.13c-0.09,3.05-1.56,5.51-4.03,6.76c-0.65,0.33-1.34,0.55-2.04,0.67l5.76,20.1
			c0.48,1.66-0.48,3.39-2.15,3.87c-1.66,0.48-3.39-0.48-3.87-2.15l-4.65-16.23c-0.75,0.33-1.56,0.53-2.37,0.59
			c-0.42,2.42-1.8,4.35-3.9,5.41c-1.02,0.51-2.14,0.77-3.26,0.78c-0.97,3.6-4.07,5.45-7.11,5.42c-3.52-0.03-7.29-2.71-7.35-7.6
			c-0.27-10.39-4.88-15.16-14.94-15.45H57.38l9.76,34.26c0.45,1.67-0.54,3.38-2.21,3.83C64.65,151.59,64.38,151.63,64.11,151.63z
			 M53.37,107.18h15.37c0.03,0,0.06,0,0.08,0c13.43,0.36,20.71,7.82,21.07,21.58c0.02,1.27,0.72,1.46,1.15,1.46
			c0.67,0,1.06-0.47,1.1-1.41c-0.11-8.53-1.67-13.98-5.2-18.2c-1.11-1.32-0.94-3.3,0.39-4.41c1.32-1.11,3.3-0.93,4.41,0.39
			c4.66,5.56,6.09,12.27,6.51,18.19c0.1-0.02,0.2-0.05,0.3-0.09c0.37-0.18,0.56-0.62,0.59-1.3c-0.11-8.53-1.67-13.98-5.2-18.2
			c-1.11-1.32-0.94-3.3,0.39-4.41c1.32-1.11,3.3-0.93,4.41,0.39c4.44,5.3,5.94,11.63,6.44,17.34c0.35-0.19,0.54-0.63,0.57-1.29
			c-0.11-8.53-1.67-13.98-5.2-18.2c-1.11-1.32-0.93-3.3,0.39-4.41c1.32-1.11,3.3-0.93,4.41,0.39c4.45,5.31,5.95,11.67,6.44,17.4
			c0.35-0.19,0.54-0.62,0.57-1.29c-0.09-5.89-2.63-11.64-7.99-18.07c-3.11-2.99-13.67-12.11-26.6-12.11h-38.4
			c-1.73,0-3.13-1.4-3.13-3.13V63.74c-1.33,0.57-2.68,1.23-3.2,1.73c-0.03,0.03-0.06,0.05-0.08,0.08L10.71,85.5
			c-4.66,4.11-5.28,10.85-3.5,15.4c0.94,2.4,3.41,6.42,9.42,6.28c0.02,0,0.05,0,0.07,0h36.54
			C53.28,107.18,53.33,107.18,53.37,107.18z M42.48,74.69h35.27c4.86,0,9.37,1.02,13.4,2.55L90.81,7.46
			c-4.09,1.62-8.1,3.98-9.34,6.12c-0.71,1.22-2.14,1.82-3.5,1.46c-1.36-0.36-2.32-1.58-2.33-2.99l-0.05-5.31
			c-4.5,0.73-8.66,3.33-10.72,6.9c-0.71,1.22-2.15,1.83-3.51,1.46c-1.37-0.36-2.32-1.6-2.33-3.01l-0.02-4.31
			c-9.06,2.12-16.53,13.06-16.53,21.86v14.08c4.47,0.88,8.2,6.29,9.28,13.49c0.16,1.05-0.22,2.1-1.01,2.8
			c-0.79,0.7-1.88,0.96-2.9,0.68l-5.37-1.46V74.69z M97.36,66.45l0.03,7.03c0.96-0.86,1.57-2.11,1.57-3.5
			C98.96,68.58,98.34,67.31,97.36,66.45z M42.48,52.76l1.65,0.45c-0.53-1.12-1.12-1.96-1.65-2.51V52.76z M61.62,60.81
			c-0.87,0-1.71-0.36-2.31-1.02c-0.74-0.81-1-1.96-0.69-3.01c2.11-6.99,8.81-12.37,16.3-13.09c1.72-0.16,3.25,1.09,3.41,2.81
			c0.17,1.72-1.09,3.25-2.81,3.41c-2.68,0.26-5.26,1.45-7.28,3.21l4.31-0.89c1.69-0.35,3.35,0.74,3.69,2.43
			c0.35,1.69-0.74,3.35-2.43,3.69l-11.56,2.38C62.04,60.79,61.83,60.81,61.62,60.81z"/>
	</g>
</g>
</svg>
