<?xml version="1.0" encoding="utf-8"?>
<!-- Generator: Adobe Illustrator 24.1.1, SVG Export Plug-In . SVG Version: 6.00 Build 0)  -->
<svg version="1.0" id="Layer_1" xmlns="http://www.w3.org/2000/svg" xmlns:xlink="http://www.w3.org/1999/xlink" x="0px" y="0px"
	 viewBox="0 0 145.34 131.44" style="enable-background:new 0 0 145.34 131.44;" xml:space="preserve">
<g>
	<path style="fill:#282859;" d="M145.32,92.65c-0.5-7.03-8-10.23-14.75-10.23c-0.89,0-1.74,0.06-2.52,0.17
		c-7.92,1.14-18.66,6.53-26.67,12.15c-0.02-0.03-0.04-0.05-0.06-0.07c-1.91-5.39-8.16-9.64-18.61-12.66
		c-9.84-2.84-20.95-3.85-28.08-3.85c-3.5,0-6.46,0.23-8.53,0.67c-2.65,0.55-5.66,1.62-9.21,3.28c-0.35,0.17-0.66,0.4-0.92,0.67H3.18
		C1.42,82.77,0,84.19,0,85.95v38.19c0,1.76,1.42,3.18,3.18,3.18h35.01c0.08,0,0.16-0.02,0.24-0.02c0.11-0.01,0.22-0.01,0.34-0.03
		c0.09-0.02,0.17-0.04,0.26-0.07c0.12-0.03,0.25-0.05,0.36-0.09c5.29-2.06,9.91-3.06,14.13-3.06c5.34,0,9.57,1.62,14.04,3.33
		c4.98,1.9,10.62,4.06,18.22,4.06c0,0,0,0,0,0c1.11,0,2.25-0.05,3.39-0.14c7.54-0.59,22.01-7.84,33-14.77
		c6.45-4.07,11.94-8.14,15.88-11.79C143.24,99.92,145.56,96.08,145.32,92.65z M35.01,120.96H6.37V89.13h28.64V120.96z
		 M118.77,111.15c-11.83,7.46-24.77,13.39-30.11,13.81c-0.98,0.08-1.95,0.12-2.89,0.12c0,0,0,0,0,0c-6.42,0-11.05-1.77-15.94-3.64
		c-4.82-1.84-9.8-3.75-16.32-3.75c-3.78,0-7.77,0.65-12.09,1.98V87.05c2.28-0.97,4.28-1.64,5.98-1.99c1.64-0.35,4.21-0.54,7.24-0.54
		c6.69,0,17.11,0.95,26.31,3.6c8.75,2.53,14.07,6,14.6,9.56c0.03,0.19,0.04,0.35,0.05,0.51c-0.08,0.83-0.43,1.15-0.61,1.31
		c-0.76,0.68-3.45,2.14-12.13,0.99c-5.76-0.76-11.55-2.31-14.66-3.15c-0.49-0.13-0.9-0.24-1.23-0.33c-1.7-0.44-3.44,0.58-3.88,2.28
		c-0.44,1.7,0.58,3.44,2.28,3.88c0.31,0.08,0.71,0.19,1.17,0.31c7.19,1.93,15.29,3.78,21.95,3.78c4.47,0,8.29-0.84,10.75-3.04
		c0.06-0.05,0.12-0.12,0.17-0.17c0.36-0.13,0.71-0.32,1.01-0.58c7.1-6.06,20.02-13.37,28.54-14.6c0.47-0.07,1.02-0.11,1.59-0.11
		c3.13,0,8.18,1.17,8.4,4.31C139.09,94.76,134.3,101.36,118.77,111.15z"/>
	<path style="fill:#282859;" d="M84.91,74.81c3.13,1.65,6.66,2.53,10.21,2.53c7.48,0,14.37-3.77,18.43-10.08
		c2.28-3.54,3.48-7.63,3.48-11.85c0-7.4-6-14.77-11.8-21.89c-2.65-3.25-5.39-6.61-7.33-9.74c-0.58-0.93-1.6-1.5-2.7-1.5c0,0,0,0,0,0
		c-1.1,0-2.12,0.57-2.7,1.5c-2,3.21-4.8,6.6-7.51,9.88c-5.8,7.02-11.79,14.29-11.79,21.75C73.2,63.57,77.69,71,84.91,74.81z
		 M89.9,37.71c1.79-2.17,3.63-4.39,5.29-6.63c1.61,2.17,3.37,4.34,5.1,6.47c5.1,6.26,10.37,12.73,10.37,17.87
		c0,2.99-0.85,5.89-2.47,8.4c-2.88,4.48-7.77,7.16-13.07,7.16c-2.56,0-4.99-0.6-7.25-1.79c-5.13-2.71-8.32-7.98-8.32-13.77
		C79.56,50.23,84.82,43.87,89.9,37.71z"/>
	<path style="fill:#282859;" d="M114.52,34.28c2.08,1.1,4.43,1.68,6.79,1.68c4.97,0,9.55-2.5,12.25-6.7
		c1.51-2.35,2.31-5.08,2.31-7.88c0-4.94-3.79-9.59-7.45-14.09c-1.66-2.04-3.22-3.96-4.36-5.79c-0.58-0.93-1.6-1.5-2.7-1.5
		c0,0,0,0,0,0c-1.1,0-2.12,0.57-2.7,1.5c-1.17,1.88-2.85,3.91-4.47,5.87c-3.66,4.44-7.45,9.03-7.45,14.02
		C106.74,26.81,109.72,31.75,114.52,34.28z M119.1,11.42c0.75-0.91,1.52-1.84,2.25-2.77c0.7,0.9,1.42,1.79,2.14,2.66
		c2.82,3.47,6.02,7.4,6.02,10.07c0,1.58-0.45,3.11-1.3,4.43c-1.52,2.37-4.1,3.78-6.9,3.78c-1.35,0-2.63-0.32-3.82-0.94
		c-2.71-1.43-4.39-4.21-4.39-7.27C113.1,18.69,116.15,15,119.1,11.42z"/>
	<path style="fill:#282859;" d="M55.18,48.88c1.56,0.82,3.33,1.26,5.1,1.26c3.73,0,7.17-1.88,9.19-5.03
		c1.14-1.77,1.74-3.81,1.74-5.91c0-3.71-2.84-7.2-5.59-10.58c-1.24-1.53-2.42-2.97-3.27-4.35c-0.44-0.7-1.2-1.13-2.03-1.13
		c0,0,0,0,0,0c-0.82,0-1.59,0.42-2.03,1.12c-0.88,1.41-2.14,2.94-3.35,4.41c-2.75,3.33-5.59,6.78-5.59,10.52
		C49.33,43.27,51.57,46.98,55.18,48.88z M58.61,31.73c0.56-0.68,1.14-1.38,1.69-2.08c0.53,0.67,1.07,1.34,1.6,2
		c2.12,2.6,4.52,5.55,4.52,7.56c0,1.18-0.34,2.33-0.98,3.33c-1.14,1.78-3.08,2.84-5.18,2.84c-1.01,0-1.98-0.24-2.87-0.71
		c-2.03-1.07-3.29-3.16-3.29-5.45C54.11,37.18,56.4,34.41,58.61,31.73z"/>
</g>
</svg>
