<?xml version="1.0" encoding="utf-8"?>
<!-- Generator: Adobe Illustrator 24.1.1, SVG Export Plug-In . SVG Version: 6.00 Build 0)  -->
<svg version="1.0" id="Layer_1" xmlns="http://www.w3.org/2000/svg" xmlns:xlink="http://www.w3.org/1999/xlink" x="0px" y="0px"
	 viewBox="0 0 111.7 137.6" style="enable-background:new 0 0 111.7 137.6;" xml:space="preserve">
<g>
	<g>
		<path style="fill:#282859;" d="M75.49,137.6h-16.8c-11.08,0-21.6-4.84-28.81-13.25L3.9,94.03c-4.6-5.14-5.19-12.72-1.44-18.51
			c4.61-6.8,13.87-8.57,20.66-3.96c0.32,0.22,0.63,0.44,0.93,0.68l8,6.4V27.7c-0.12-6.2,4.13-11.62,10.18-12.98
			c2.68-0.53,5.46-0.18,7.92,0.99V13.4C50,7.02,54.44,1.45,60.7,0.18c6.2-1.04,12.24,2.62,14.18,8.6c2.47-1.34,5.31-1.82,8.08-1.37
			c6.3,1.26,10.79,6.86,10.63,13.28v2.27c2.47-1.17,5.24-1.51,7.92-0.99c6.05,1.36,10.3,6.78,10.18,12.98v66.45
			C111.7,121.39,95.49,137.6,75.49,137.6z M14.77,76.23c-4.22,0.01-7.63,3.44-7.62,7.65c0,1.81,0.65,3.56,1.82,4.93l26.41,30.81
			c5.83,6.81,14.35,10.72,23.31,10.72h16.8c16,0,28.97-12.97,28.97-28.97V34.4c0-3-2.43-5.43-5.43-5.43c-3,0-5.43,2.43-5.43,5.43
			v30.78c0,2-1.62,3.62-3.62,3.62s-3.62-1.62-3.62-3.62V19.92c0-3-2.43-5.43-5.43-5.43s-5.43,2.43-5.43,5.43v45.26
			c0,2-1.62,3.62-3.62,3.62s-3.62-1.62-3.62-3.62v-52.5c0-3-2.43-5.43-5.43-5.43s-5.43,2.43-5.43,5.43v52.5c0,2-1.62,3.62-3.62,3.62
			c-2,0-3.62-1.62-3.62-3.62V27.16c0-3-2.43-5.43-5.43-5.43c-3,0-5.43,2.43-5.43,5.43v56.12c0,2-1.62,3.62-3.62,3.62c0,0,0,0,0,0
			h-3.62c-0.82,0-1.62-0.28-2.26-0.79L19.52,77.9C18.17,76.82,16.5,76.23,14.77,76.23z"/>
	</g>
</g>
</svg>
