<?xml version="1.0" encoding="utf-8"?>
<!-- Generator: Adobe Illustrator 24.1.1, SVG Export Plug-In . SVG Version: 6.00 Build 0)  -->
<svg version="1.0" id="Layer_1" xmlns="http://www.w3.org/2000/svg" xmlns:xlink="http://www.w3.org/1999/xlink" x="0px" y="0px"
	 viewBox="0 0 145.8 141.12" style="enable-background:new 0 0 145.8 141.12;" xml:space="preserve">
<g>
	<path style="fill:#282859;" d="M50.86,124.86H40.33L70.47,10.08c0.63-2.39,0.1-4.9-1.43-6.9C67.48,1.16,65.13,0,62.61,0
		c-3.5,0-6.57,2.35-7.45,5.71L23.88,124.86H10.71C4.81,124.86,0,129.67,0,135.58v5.54h61.57v-5.54
		C61.57,129.67,56.76,124.86,50.86,124.86z M60.88,7.21c0.2-0.78,0.9-1.3,1.73-1.3c0.68,0,1.31,0.32,1.75,0.88
		c0.41,0.53,0.56,1.18,0.4,1.79L34.42,124.12h-4.23L60.88,7.21z M10.71,130.77h28.32c2.52,0,4.57,1.96,4.77,4.43H5.93
		C6.11,132.73,8.19,130.77,10.71,130.77z M49.73,135.21c-0.05-1.59-0.46-3.09-1.13-4.43h2.26c2.52,0,4.6,1.96,4.79,4.43H49.73z"/>
	<path style="fill:#282859;" d="M130.9,56.64h-27.95v4.68h-7.82c-0.99-3.32-3.63-5.93-6.95-6.93c0.18-10.99,3.01-20.01,7.86-24.86
		c2.82-2.83,6.37-4.26,10.53-4.26c10.19,0,18.5,18.57,18.54,33.65l5.91-0.01c-0.04-18.33-11.01-39.55-24.45-39.55
		c-5.79,0-10.74,2.02-14.71,6c-7.95,7.97-9.47,21.12-9.59,29.04c-3.33,1-5.97,3.6-6.96,6.93H60.37L59.34,71.7l8.48,69.42h64.34
		l2.53-20.69h3.1c4.42,0,8.01-3.59,8.01-8V71.54C145.8,63.33,139.11,56.64,130.9,56.64z M126.93,135.21H73.05l-0.6-4.93h27.79v-5.91
		H71.73L68.3,96.3h28.98v-5.91H67.57l-0.72-5.91h30.43v-5.91H66.13l-0.85-6.93l0.44-4.4h15.06v-2.96c0-2.44,1.99-4.43,4.43-4.43
		c2.44,0,4.43,1.99,4.43,4.43v2.96h13.3v45.19c0,4.41,3.59,8,8,8h17.78L126.93,135.21z M139.89,112.43c0,1.15-0.94,2.09-2.09,2.09
		h-18.22V86.57h-5.91v27.95h-2.71c-1.15,0-2.09-0.94-2.09-2.09V62.55h22.04c4.96,0,8.99,4.03,8.99,8.99V112.43z"/>
</g>
</svg>
