<?xml version="1.0" encoding="utf-8"?>
<!-- Generator: Adobe Illustrator 24.1.1, SVG Export Plug-In . SVG Version: 6.00 Build 0)  -->
<svg version="1.0" id="Capa_1" xmlns="http://www.w3.org/2000/svg" xmlns:xlink="http://www.w3.org/1999/xlink" x="0px" y="0px"
	 viewBox="0 0 39.27 40.28" style="enable-background:new 0 0 39.27 40.28;" xml:space="preserve">
<path id="Trazado_3804" style="fill:#FF2A62;" d="M37.53,22.46c-1.63-0.92-3.7-0.36-4.64,1.26l-3.21-1.83
	c0.23-1.23,0.24-2.5,0.01-3.73l3.17-1.82l0.03,0.06c0.95,1.63,3.04,2.18,4.67,1.23c1.63-0.95,2.18-3.04,1.23-4.67L35.4,7.14
	c-0.95-1.63-3.04-2.18-4.67-1.23c-1.58,0.92-2.15,2.91-1.31,4.53l-3.14,1.8c-0.96-0.83-2.06-1.47-3.26-1.89V6.83h0.01
	c1.89,0,3.41-1.53,3.41-3.41S24.94,0,23.05,0h-6.83c-1.89,0.03-3.39,1.58-3.36,3.47c0.03,1.84,1.51,3.33,3.35,3.36v3.52
	c-1.19,0.42-2.29,1.06-3.25,1.89l-3.12-1.79c0.87-1.67,0.23-3.73-1.44-4.61C6.78,4.99,4.78,5.57,3.87,7.14l-3.39,5.82
	c-0.95,1.63-0.4,3.72,1.23,4.67c1.63,0.95,3.72,0.4,4.67-1.23l0.03-0.06l3.15,1.8c-0.23,1.24-0.23,2.52,0.01,3.76l-3.19,1.82
	c-0.94-1.64-3.03-2.2-4.66-1.26c-1.64,0.94-2.2,3.03-1.26,4.66l0,0l3.39,5.98c0.9,1.66,2.98,2.27,4.63,1.36
	c1.66-0.9,2.27-2.98,1.36-4.63c-0.02-0.03-0.04-0.07-0.06-0.1l-0.04-0.08L13,27.8c0.95,0.81,2.04,1.43,3.21,1.85v3.8
	c-1.89,0.04-3.38,1.59-3.35,3.48c0.03,1.84,1.52,3.32,3.36,3.35h6.83c1.89,0,3.41-1.53,3.41-3.41s-1.53-3.41-3.41-3.41h-0.01v-3.8
	c1.18-0.42,2.27-1.05,3.22-1.86l3.27,1.87l-0.04,0.07c-0.95,1.63-0.4,3.72,1.23,4.67c1.63,0.95,3.72,0.4,4.67-1.23
	c0.01-0.02,0.03-0.04,0.04-0.07l3.39-5.98c0.93-1.64,0.36-3.72-1.28-4.65C37.54,22.46,37.53,22.46,37.53,22.46z M19.62,23.41
	c-1.89,0-3.41-1.53-3.41-3.41s1.53-3.41,3.41-3.41s3.41,1.53,3.41,3.41C23.03,21.88,21.5,23.4,19.62,23.41L19.62,23.41z"/>
</svg>
