<?xml version="1.0" encoding="utf-8"?>
<!-- Generator: Adobe Illustrator 24.1.1, SVG Export Plug-In . SVG Version: 6.00 Build 0)  -->
<svg version="1.0" id="Capa_1" xmlns="http://www.w3.org/2000/svg" xmlns:xlink="http://www.w3.org/1999/xlink" x="0px" y="0px"
	 viewBox="0 0 40.75 37.67" style="enable-background:new 0 0 40.75 37.67;" xml:space="preserve">
<path id="Trazado_3805" style="fill:#FD2A62;" d="M38.69,26.74l-0.03,0.25c-7.38-3.68-8.15-4.17-9.1-2.74
	c-0.66,0.99-2.59,3.24-3.17,3.91s-1.17,0.71-2.17,0.25c-2.96-1.18-5.69-2.87-8.06-4.99c-2.19-2.03-4.06-4.38-5.57-6.96
	c-0.98-1.7,1.07-1.94,2.95-5.49c0.27-0.56,0.24-1.23-0.08-1.76c-0.25-0.5-2.26-5.45-3.09-7.41C9.55-0.18,8.72,0.07,8.1,0.07
	C6.17-0.1,4.76-0.07,3.51,1.23C-1.9,7.19-0.54,13.34,4.1,19.88c9.11,11.94,13.96,14.14,22.83,17.19c2.04,0.62,4.2,0.76,6.31,0.41
	c1.93-0.31,5.93-2.42,6.76-4.79c0.85-2.37,0.85-4.34,0.6-4.79S39.7,27.19,38.69,26.74L38.69,26.74z"/>
</svg>
