<?xml version="1.0" encoding="utf-8"?>
<!-- Generator: Adobe Illustrator 24.1.1, SVG Export Plug-In . SVG Version: 6.00 Build 0)  -->
<svg version="1.0" id="Capa_1" xmlns="http://www.w3.org/2000/svg" xmlns:xlink="http://www.w3.org/1999/xlink" x="0px" y="0px"
	 viewBox="0 0 40.07 33.63" style="enable-background:new 0 0 40.07 33.63;" xml:space="preserve">
<path id="XMLID_89_" style="fill:#FD2A62;" d="M12.12,33.09c0.71,0.71,1.86,0.71,2.58,0c0,0,0,0,0,0L39.53,8.26
	c0.71-0.71,0.71-1.86,0-2.58c0,0,0,0,0,0l-5.15-5.15c-0.71-0.71-1.86-0.71-2.58,0c0,0,0,0,0,0L13.41,18.93l-5.15-5.15
	c-0.71-0.71-1.86-0.71-2.58,0c0,0,0,0,0,0l-5.15,5.15c-0.71,0.71-0.71,1.86,0,2.58L12.12,33.09z"/>
</svg>
